<svg xmlns="http://www.w3.org/2000/svg" xmlns:xlink="http://www.w3.org/1999/xlink" width="500" zoomAndPan="magnify" viewBox="0 0 375 374.999991" height="500" preserveAspectRatio="xMidYMid meet" version="1.0"><defs><g/></defs><g fill="#00bf63" fill-opacity="1"><g transform="translate(313.449622, 28.067437)"><g><path d="M 9.15625 0.265625 C 7.625 0.265625 6.289062 -0.0703125 5.15625 -0.75 C 4.03125 -1.425781 3.148438 -2.484375 2.515625 -3.921875 C 1.890625 -5.359375 1.578125 -7.175781 1.578125 -9.375 C 1.578125 -11.570312 1.890625 -13.390625 2.515625 -14.828125 C 3.148438 -16.265625 4.03125 -17.320312 5.15625 -18 C 6.289062 -18.675781 7.625 -19.015625 9.15625 -19.015625 C 10.695312 -19.015625 12.03125 -18.675781 13.15625 -18 C 14.289062 -17.320312 15.171875 -16.265625 15.796875 -14.828125 C 16.429688 -13.390625 16.75 -11.570312 16.75 -9.375 C 16.75 -7.175781 16.429688 -5.359375 15.796875 -3.921875 C 15.171875 -2.484375 14.289062 -1.425781 13.15625 -0.75 C 12.03125 -0.0703125 10.695312 0.265625 9.15625 0.265625 Z M 9.15625 -2.875 C 9.988281 -2.875 10.6875 -3.078125 11.25 -3.484375 C 11.820312 -3.890625 12.257812 -4.570312 12.5625 -5.53125 C 12.863281 -6.488281 13.015625 -7.769531 13.015625 -9.375 C 13.015625 -10.976562 12.863281 -12.257812 12.5625 -13.21875 C 12.257812 -14.175781 11.820312 -14.859375 11.25 -15.265625 C 10.6875 -15.671875 9.988281 -15.875 9.15625 -15.875 C 8.320312 -15.875 7.617188 -15.671875 7.046875 -15.265625 C 6.484375 -14.859375 6.050781 -14.175781 5.75 -13.21875 C 5.445312 -12.257812 5.296875 -10.976562 5.296875 -9.375 C 5.296875 -7.769531 5.445312 -6.488281 5.75 -5.53125 C 6.050781 -4.570312 6.484375 -3.890625 7.046875 -3.484375 C 7.617188 -3.078125 8.320312 -2.875 9.15625 -2.875 Z M 9.15625 -2.875 "/></g></g></g><g fill="#00bf63" fill-opacity="1"><g transform="translate(349.339112, 22.866984)"><g><path d="M 0.984375 0 L 0.984375 -3.0625 L 5.515625 -3.0625 L 5.515625 -14.734375 L 5.21875 -14.8125 C 4.582031 -14.5 3.953125 -14.253906 3.328125 -14.078125 C 2.703125 -13.898438 1.992188 -13.757812 1.203125 -13.65625 L 1.203125 -16.828125 C 3.285156 -17.265625 4.96875 -17.90625 6.25 -18.75 L 9.1875 -18.75 L 9.1875 -3.0625 L 13.21875 -3.0625 L 13.21875 0 Z M 0.984375 0 "/></g></g></g><g fill="#00bf63" fill-opacity="1"><g transform="translate(248.589715, 23.935421)"><g><path d="M 0.984375 0 L 0.984375 -3.0625 L 5.515625 -3.0625 L 5.515625 -14.734375 L 5.21875 -14.8125 C 4.582031 -14.5 3.953125 -14.253906 3.328125 -14.078125 C 2.703125 -13.898438 1.992188 -13.757812 1.203125 -13.65625 L 1.203125 -16.828125 C 3.285156 -17.265625 4.96875 -17.90625 6.25 -18.75 L 9.1875 -18.75 L 9.1875 -3.0625 L 13.21875 -3.0625 L 13.21875 0 Z M 0.984375 0 "/></g></g></g><g fill="#00bf63" fill-opacity="1"><g transform="translate(282.142544, 29.151958)"><g><path d="M 0.984375 0 L 0.984375 -3.0625 L 5.515625 -3.0625 L 5.515625 -14.734375 L 5.21875 -14.8125 C 4.582031 -14.5 3.953125 -14.253906 3.328125 -14.078125 C 2.703125 -13.898438 1.992188 -13.757812 1.203125 -13.65625 L 1.203125 -16.828125 C 3.285156 -17.265625 4.96875 -17.90625 6.25 -18.75 L 9.1875 -18.75 L 9.1875 -3.0625 L 13.21875 -3.0625 L 13.21875 0 Z M 0.984375 0 "/></g></g></g><g fill="#00bf63" fill-opacity="1"><g transform="translate(179.412619, 31.983411)"><g><path d="M 9.15625 0.265625 C 7.625 0.265625 6.289062 -0.0703125 5.15625 -0.75 C 4.03125 -1.425781 3.148438 -2.484375 2.515625 -3.921875 C 1.890625 -5.359375 1.578125 -7.175781 1.578125 -9.375 C 1.578125 -11.570312 1.890625 -13.390625 2.515625 -14.828125 C 3.148438 -16.265625 4.03125 -17.320312 5.15625 -18 C 6.289062 -18.675781 7.625 -19.015625 9.15625 -19.015625 C 10.695312 -19.015625 12.03125 -18.675781 13.15625 -18 C 14.289062 -17.320312 15.171875 -16.265625 15.796875 -14.828125 C 16.429688 -13.390625 16.75 -11.570312 16.75 -9.375 C 16.75 -7.175781 16.429688 -5.359375 15.796875 -3.921875 C 15.171875 -2.484375 14.289062 -1.425781 13.15625 -0.75 C 12.03125 -0.0703125 10.695312 0.265625 9.15625 0.265625 Z M 9.15625 -2.875 C 9.988281 -2.875 10.6875 -3.078125 11.25 -3.484375 C 11.820312 -3.890625 12.257812 -4.570312 12.5625 -5.53125 C 12.863281 -6.488281 13.015625 -7.769531 13.015625 -9.375 C 13.015625 -10.976562 12.863281 -12.257812 12.5625 -13.21875 C 12.257812 -14.175781 11.820312 -14.859375 11.25 -15.265625 C 10.6875 -15.671875 9.988281 -15.875 9.15625 -15.875 C 8.320312 -15.875 7.617188 -15.671875 7.046875 -15.265625 C 6.484375 -14.859375 6.050781 -14.175781 5.75 -13.21875 C 5.445312 -12.257812 5.296875 -10.976562 5.296875 -9.375 C 5.296875 -7.769531 5.445312 -6.488281 5.75 -5.53125 C 6.050781 -4.570312 6.484375 -3.890625 7.046875 -3.484375 C 7.617188 -3.078125 8.320312 -2.875 9.15625 -2.875 Z M 9.15625 -2.875 "/></g></g></g><g fill="#00bf63" fill-opacity="1"><g transform="translate(213.056388, 27.061823)"><g><path d="M 9.15625 0.265625 C 7.625 0.265625 6.289062 -0.0703125 5.15625 -0.75 C 4.03125 -1.425781 3.148438 -2.484375 2.515625 -3.921875 C 1.890625 -5.359375 1.578125 -7.175781 1.578125 -9.375 C 1.578125 -11.570312 1.890625 -13.390625 2.515625 -14.828125 C 3.148438 -16.265625 4.03125 -17.320312 5.15625 -18 C 6.289062 -18.675781 7.625 -19.015625 9.15625 -19.015625 C 10.695312 -19.015625 12.03125 -18.675781 13.15625 -18 C 14.289062 -17.320312 15.171875 -16.265625 15.796875 -14.828125 C 16.429688 -13.390625 16.75 -11.570312 16.75 -9.375 C 16.75 -7.175781 16.429688 -5.359375 15.796875 -3.921875 C 15.171875 -2.484375 14.289062 -1.425781 13.15625 -0.75 C 12.03125 -0.0703125 10.695312 0.265625 9.15625 0.265625 Z M 9.15625 -2.875 C 9.988281 -2.875 10.6875 -3.078125 11.25 -3.484375 C 11.820312 -3.890625 12.257812 -4.570312 12.5625 -5.53125 C 12.863281 -6.488281 13.015625 -7.769531 13.015625 -9.375 C 13.015625 -10.976562 12.863281 -12.257812 12.5625 -13.21875 C 12.257812 -14.175781 11.820312 -14.859375 11.25 -15.265625 C 10.6875 -15.671875 9.988281 -15.875 9.15625 -15.875 C 8.320312 -15.875 7.617188 -15.671875 7.046875 -15.265625 C 6.484375 -14.859375 6.050781 -14.175781 5.75 -13.21875 C 5.445312 -12.257812 5.296875 -10.976562 5.296875 -9.375 C 5.296875 -7.769531 5.445312 -6.488281 5.75 -5.53125 C 6.050781 -4.570312 6.484375 -3.890625 7.046875 -3.484375 C 7.617188 -3.078125 8.320312 -2.875 9.15625 -2.875 Z M 9.15625 -2.875 "/></g></g></g><g fill="#00bf63" fill-opacity="1"><g transform="translate(112.306989, 28.428944)"><g><path d="M 9.15625 0.265625 C 7.625 0.265625 6.289062 -0.0703125 5.15625 -0.75 C 4.03125 -1.425781 3.148438 -2.484375 2.515625 -3.921875 C 1.890625 -5.359375 1.578125 -7.175781 1.578125 -9.375 C 1.578125 -11.570312 1.890625 -13.390625 2.515625 -14.828125 C 3.148438 -16.265625 4.03125 -17.320312 5.15625 -18 C 6.289062 -18.675781 7.625 -19.015625 9.15625 -19.015625 C 10.695312 -19.015625 12.03125 -18.675781 13.15625 -18 C 14.289062 -17.320312 15.171875 -16.265625 15.796875 -14.828125 C 16.429688 -13.390625 16.75 -11.570312 16.75 -9.375 C 16.75 -7.175781 16.429688 -5.359375 15.796875 -3.921875 C 15.171875 -2.484375 14.289062 -1.425781 13.15625 -0.75 C 12.03125 -0.0703125 10.695312 0.265625 9.15625 0.265625 Z M 9.15625 -2.875 C 9.988281 -2.875 10.6875 -3.078125 11.25 -3.484375 C 11.820312 -3.890625 12.257812 -4.570312 12.5625 -5.53125 C 12.863281 -6.488281 13.015625 -7.769531 13.015625 -9.375 C 13.015625 -10.976562 12.863281 -12.257812 12.5625 -13.21875 C 12.257812 -14.175781 11.820312 -14.859375 11.25 -15.265625 C 10.6875 -15.671875 9.988281 -15.875 9.15625 -15.875 C 8.320312 -15.875 7.617188 -15.671875 7.046875 -15.265625 C 6.484375 -14.859375 6.050781 -14.175781 5.75 -13.21875 C 5.445312 -12.257812 5.296875 -10.976562 5.296875 -9.375 C 5.296875 -7.769531 5.445312 -6.488281 5.75 -5.53125 C 6.050781 -4.570312 6.484375 -3.890625 7.046875 -3.484375 C 7.617188 -3.078125 8.320312 -2.875 9.15625 -2.875 Z M 9.15625 -2.875 "/></g></g></g><g fill="#00bf63" fill-opacity="1"><g transform="translate(148.105512, 29.151958)"><g><path d="M 0.984375 0 L 0.984375 -3.0625 L 5.515625 -3.0625 L 5.515625 -14.734375 L 5.21875 -14.8125 C 4.582031 -14.5 3.953125 -14.253906 3.328125 -14.078125 C 2.703125 -13.898438 1.992188 -13.757812 1.203125 -13.65625 L 1.203125 -16.828125 C 3.285156 -17.265625 4.96875 -17.90625 6.25 -18.75 L 9.1875 -18.75 L 9.1875 -3.0625 L 13.21875 -3.0625 L 13.21875 0 Z M 0.984375 0 "/></g></g></g><g fill="#00bf63" fill-opacity="1"><g transform="translate(47.62131, 30.125403)"><g><path d="M 0.984375 0 L 0.984375 -3.0625 L 5.515625 -3.0625 L 5.515625 -14.734375 L 5.21875 -14.8125 C 4.582031 -14.5 3.953125 -14.253906 3.328125 -14.078125 C 2.703125 -13.898438 1.992188 -13.757812 1.203125 -13.65625 L 1.203125 -16.828125 C 3.285156 -17.265625 4.96875 -17.90625 6.25 -18.75 L 9.1875 -18.75 L 9.1875 -3.0625 L 13.21875 -3.0625 L 13.21875 0 Z M 0.984375 0 "/></g></g></g><g fill="#00bf63" fill-opacity="1"><g transform="translate(79.019361, 24.92495)"><g><path d="M 9.15625 0.265625 C 7.625 0.265625 6.289062 -0.0703125 5.15625 -0.75 C 4.03125 -1.425781 3.148438 -2.484375 2.515625 -3.921875 C 1.890625 -5.359375 1.578125 -7.175781 1.578125 -9.375 C 1.578125 -11.570312 1.890625 -13.390625 2.515625 -14.828125 C 3.148438 -16.265625 4.03125 -17.320312 5.15625 -18 C 6.289062 -18.675781 7.625 -19.015625 9.15625 -19.015625 C 10.695312 -19.015625 12.03125 -18.675781 13.15625 -18 C 14.289062 -17.320312 15.171875 -16.265625 15.796875 -14.828125 C 16.429688 -13.390625 16.75 -11.570312 16.75 -9.375 C 16.75 -7.175781 16.429688 -5.359375 15.796875 -3.921875 C 15.171875 -2.484375 14.289062 -1.425781 13.15625 -0.75 C 12.03125 -0.0703125 10.695312 0.265625 9.15625 0.265625 Z M 9.15625 -2.875 C 9.988281 -2.875 10.6875 -3.078125 11.25 -3.484375 C 11.820312 -3.890625 12.257812 -4.570312 12.5625 -5.53125 C 12.863281 -6.488281 13.015625 -7.769531 13.015625 -9.375 C 13.015625 -10.976562 12.863281 -12.257812 12.5625 -13.21875 C 12.257812 -14.175781 11.820312 -14.859375 11.25 -15.265625 C 10.6875 -15.671875 9.988281 -15.875 9.15625 -15.875 C 8.320312 -15.875 7.617188 -15.671875 7.046875 -15.265625 C 6.484375 -14.859375 6.050781 -14.175781 5.75 -13.21875 C 5.445312 -12.257812 5.296875 -10.976562 5.296875 -9.375 C 5.296875 -7.769531 5.445312 -6.488281 5.75 -5.53125 C 6.050781 -4.570312 6.484375 -3.890625 7.046875 -3.484375 C 7.617188 -3.078125 8.320312 -2.875 9.15625 -2.875 Z M 9.15625 -2.875 "/></g></g></g><g fill="#00bf63" fill-opacity="1"><g transform="translate(14.0755, 31.209924)"><g><path d="M 0.984375 0 L 0.984375 -3.0625 L 5.515625 -3.0625 L 5.515625 -14.734375 L 5.21875 -14.8125 C 4.582031 -14.5 3.953125 -14.253906 3.328125 -14.078125 C 2.703125 -13.898438 1.992188 -13.757812 1.203125 -13.65625 L 1.203125 -16.828125 C 3.285156 -17.265625 4.96875 -17.90625 6.25 -18.75 L 9.1875 -18.75 L 9.1875 -3.0625 L 13.21875 -3.0625 L 13.21875 0 Z M 0.984375 0 "/></g></g></g><g fill="#00bf63" fill-opacity="1"><g transform="translate(313.449622, 70.436791)"><g><path d="M 9.15625 0.265625 C 7.625 0.265625 6.289062 -0.0703125 5.15625 -0.75 C 4.03125 -1.425781 3.148438 -2.484375 2.515625 -3.921875 C 1.890625 -5.359375 1.578125 -7.175781 1.578125 -9.375 C 1.578125 -11.570312 1.890625 -13.390625 2.515625 -14.828125 C 3.148438 -16.265625 4.03125 -17.320312 5.15625 -18 C 6.289062 -18.675781 7.625 -19.015625 9.15625 -19.015625 C 10.695312 -19.015625 12.03125 -18.675781 13.15625 -18 C 14.289062 -17.320312 15.171875 -16.265625 15.796875 -14.828125 C 16.429688 -13.390625 16.75 -11.570312 16.75 -9.375 C 16.75 -7.175781 16.429688 -5.359375 15.796875 -3.921875 C 15.171875 -2.484375 14.289062 -1.425781 13.15625 -0.75 C 12.03125 -0.0703125 10.695312 0.265625 9.15625 0.265625 Z M 9.15625 -2.875 C 9.988281 -2.875 10.6875 -3.078125 11.25 -3.484375 C 11.820312 -3.890625 12.257812 -4.570312 12.5625 -5.53125 C 12.863281 -6.488281 13.015625 -7.769531 13.015625 -9.375 C 13.015625 -10.976562 12.863281 -12.257812 12.5625 -13.21875 C 12.257812 -14.175781 11.820312 -14.859375 11.25 -15.265625 C 10.6875 -15.671875 9.988281 -15.875 9.15625 -15.875 C 8.320312 -15.875 7.617188 -15.671875 7.046875 -15.265625 C 6.484375 -14.859375 6.050781 -14.175781 5.75 -13.21875 C 5.445312 -12.257812 5.296875 -10.976562 5.296875 -9.375 C 5.296875 -7.769531 5.445312 -6.488281 5.75 -5.53125 C 6.050781 -4.570312 6.484375 -3.890625 7.046875 -3.484375 C 7.617188 -3.078125 8.320312 -2.875 9.15625 -2.875 Z M 9.15625 -2.875 "/></g></g></g><g fill="#00bf63" fill-opacity="1"><g transform="translate(349.339112, 65.236333)"><g><path d="M 0.984375 0 L 0.984375 -3.0625 L 5.515625 -3.0625 L 5.515625 -14.734375 L 5.21875 -14.8125 C 4.582031 -14.5 3.953125 -14.253906 3.328125 -14.078125 C 2.703125 -13.898438 1.992188 -13.757812 1.203125 -13.65625 L 1.203125 -16.828125 C 3.285156 -17.265625 4.96875 -17.90625 6.25 -18.75 L 9.1875 -18.75 L 9.1875 -3.0625 L 13.21875 -3.0625 L 13.21875 0 Z M 0.984375 0 "/></g></g></g><g fill="#00bf63" fill-opacity="1"><g transform="translate(248.589715, 66.304772)"><g><path d="M 9.15625 0.265625 C 7.625 0.265625 6.289062 -0.0703125 5.15625 -0.75 C 4.03125 -1.425781 3.148438 -2.484375 2.515625 -3.921875 C 1.890625 -5.359375 1.578125 -7.175781 1.578125 -9.375 C 1.578125 -11.570312 1.890625 -13.390625 2.515625 -14.828125 C 3.148438 -16.265625 4.03125 -17.320312 5.15625 -18 C 6.289062 -18.675781 7.625 -19.015625 9.15625 -19.015625 C 10.695312 -19.015625 12.03125 -18.675781 13.15625 -18 C 14.289062 -17.320312 15.171875 -16.265625 15.796875 -14.828125 C 16.429688 -13.390625 16.75 -11.570312 16.75 -9.375 C 16.75 -7.175781 16.429688 -5.359375 15.796875 -3.921875 C 15.171875 -2.484375 14.289062 -1.425781 13.15625 -0.75 C 12.03125 -0.0703125 10.695312 0.265625 9.15625 0.265625 Z M 9.15625 -2.875 C 9.988281 -2.875 10.6875 -3.078125 11.25 -3.484375 C 11.820312 -3.890625 12.257812 -4.570312 12.5625 -5.53125 C 12.863281 -6.488281 13.015625 -7.769531 13.015625 -9.375 C 13.015625 -10.976562 12.863281 -12.257812 12.5625 -13.21875 C 12.257812 -14.175781 11.820312 -14.859375 11.25 -15.265625 C 10.6875 -15.671875 9.988281 -15.875 9.15625 -15.875 C 8.320312 -15.875 7.617188 -15.671875 7.046875 -15.265625 C 6.484375 -14.859375 6.050781 -14.175781 5.75 -13.21875 C 5.445312 -12.257812 5.296875 -10.976562 5.296875 -9.375 C 5.296875 -7.769531 5.445312 -6.488281 5.75 -5.53125 C 6.050781 -4.570312 6.484375 -3.890625 7.046875 -3.484375 C 7.617188 -3.078125 8.320312 -2.875 9.15625 -2.875 Z M 9.15625 -2.875 "/></g></g></g><g fill="#00bf63" fill-opacity="1"><g transform="translate(282.142544, 71.52131)"><g><path d="M 0.984375 0 L 0.984375 -3.0625 L 5.515625 -3.0625 L 5.515625 -14.734375 L 5.21875 -14.8125 C 4.582031 -14.5 3.953125 -14.253906 3.328125 -14.078125 C 2.703125 -13.898438 1.992188 -13.757812 1.203125 -13.65625 L 1.203125 -16.828125 C 3.285156 -17.265625 4.96875 -17.90625 6.25 -18.75 L 9.1875 -18.75 L 9.1875 -3.0625 L 13.21875 -3.0625 L 13.21875 0 Z M 0.984375 0 "/></g></g></g><g fill="#00bf63" fill-opacity="1"><g transform="translate(181.665331, 74.352763)"><g><path d="M 0.984375 0 L 0.984375 -3.0625 L 5.515625 -3.0625 L 5.515625 -14.734375 L 5.21875 -14.8125 C 4.582031 -14.5 3.953125 -14.253906 3.328125 -14.078125 C 2.703125 -13.898438 1.992188 -13.757812 1.203125 -13.65625 L 1.203125 -16.828125 C 3.285156 -17.265625 4.96875 -17.90625 6.25 -18.75 L 9.1875 -18.75 L 9.1875 -3.0625 L 13.21875 -3.0625 L 13.21875 0 Z M 0.984375 0 "/></g></g></g><g fill="#00bf63" fill-opacity="1"><g transform="translate(215.3091, 69.431177)"><g><path d="M 0.984375 0 L 0.984375 -3.0625 L 5.515625 -3.0625 L 5.515625 -14.734375 L 5.21875 -14.8125 C 4.582031 -14.5 3.953125 -14.253906 3.328125 -14.078125 C 2.703125 -13.898438 1.992188 -13.757812 1.203125 -13.65625 L 1.203125 -16.828125 C 3.285156 -17.265625 4.96875 -17.90625 6.25 -18.75 L 9.1875 -18.75 L 9.1875 -3.0625 L 13.21875 -3.0625 L 13.21875 0 Z M 0.984375 0 "/></g></g></g><g fill="#00bf63" fill-opacity="1"><g transform="translate(114.559701, 70.798293)"><g><path d="M 0.984375 0 L 0.984375 -3.0625 L 5.515625 -3.0625 L 5.515625 -14.734375 L 5.21875 -14.8125 C 4.582031 -14.5 3.953125 -14.253906 3.328125 -14.078125 C 2.703125 -13.898438 1.992188 -13.757812 1.203125 -13.65625 L 1.203125 -16.828125 C 3.285156 -17.265625 4.96875 -17.90625 6.25 -18.75 L 9.1875 -18.75 L 9.1875 -3.0625 L 13.21875 -3.0625 L 13.21875 0 Z M 0.984375 0 "/></g></g></g><g fill="#00bf63" fill-opacity="1"><g transform="translate(148.105512, 71.52131)"><g><path d="M 9.15625 0.265625 C 7.625 0.265625 6.289062 -0.0703125 5.15625 -0.75 C 4.03125 -1.425781 3.148438 -2.484375 2.515625 -3.921875 C 1.890625 -5.359375 1.578125 -7.175781 1.578125 -9.375 C 1.578125 -11.570312 1.890625 -13.390625 2.515625 -14.828125 C 3.148438 -16.265625 4.03125 -17.320312 5.15625 -18 C 6.289062 -18.675781 7.625 -19.015625 9.15625 -19.015625 C 10.695312 -19.015625 12.03125 -18.675781 13.15625 -18 C 14.289062 -17.320312 15.171875 -16.265625 15.796875 -14.828125 C 16.429688 -13.390625 16.75 -11.570312 16.75 -9.375 C 16.75 -7.175781 16.429688 -5.359375 15.796875 -3.921875 C 15.171875 -2.484375 14.289062 -1.425781 13.15625 -0.75 C 12.03125 -0.0703125 10.695312 0.265625 9.15625 0.265625 Z M 9.15625 -2.875 C 9.988281 -2.875 10.6875 -3.078125 11.25 -3.484375 C 11.820312 -3.890625 12.257812 -4.570312 12.5625 -5.53125 C 12.863281 -6.488281 13.015625 -7.769531 13.015625 -9.375 C 13.015625 -10.976562 12.863281 -12.257812 12.5625 -13.21875 C 12.257812 -14.175781 11.820312 -14.859375 11.25 -15.265625 C 10.6875 -15.671875 9.988281 -15.875 9.15625 -15.875 C 8.320312 -15.875 7.617188 -15.671875 7.046875 -15.265625 C 6.484375 -14.859375 6.050781 -14.175781 5.75 -13.21875 C 5.445312 -12.257812 5.296875 -10.976562 5.296875 -9.375 C 5.296875 -7.769531 5.445312 -6.488281 5.75 -5.53125 C 6.050781 -4.570312 6.484375 -3.890625 7.046875 -3.484375 C 7.617188 -3.078125 8.320312 -2.875 9.15625 -2.875 Z M 9.15625 -2.875 "/></g></g></g><g fill="#00bf63" fill-opacity="1"><g transform="translate(47.62131, 72.494755)"><g><path d="M 9.15625 0.265625 C 7.625 0.265625 6.289062 -0.0703125 5.15625 -0.75 C 4.03125 -1.425781 3.148438 -2.484375 2.515625 -3.921875 C 1.890625 -5.359375 1.578125 -7.175781 1.578125 -9.375 C 1.578125 -11.570312 1.890625 -13.390625 2.515625 -14.828125 C 3.148438 -16.265625 4.03125 -17.320312 5.15625 -18 C 6.289062 -18.675781 7.625 -19.015625 9.15625 -19.015625 C 10.695312 -19.015625 12.03125 -18.675781 13.15625 -18 C 14.289062 -17.320312 15.171875 -16.265625 15.796875 -14.828125 C 16.429688 -13.390625 16.75 -11.570312 16.75 -9.375 C 16.75 -7.175781 16.429688 -5.359375 15.796875 -3.921875 C 15.171875 -2.484375 14.289062 -1.425781 13.15625 -0.75 C 12.03125 -0.0703125 10.695312 0.265625 9.15625 0.265625 Z M 9.15625 -2.875 C 9.988281 -2.875 10.6875 -3.078125 11.25 -3.484375 C 11.820312 -3.890625 12.257812 -4.570312 12.5625 -5.53125 C 12.863281 -6.488281 13.015625 -7.769531 13.015625 -9.375 C 13.015625 -10.976562 12.863281 -12.257812 12.5625 -13.21875 C 12.257812 -14.175781 11.820312 -14.859375 11.25 -15.265625 C 10.6875 -15.671875 9.988281 -15.875 9.15625 -15.875 C 8.320312 -15.875 7.617188 -15.671875 7.046875 -15.265625 C 6.484375 -14.859375 6.050781 -14.175781 5.75 -13.21875 C 5.445312 -12.257812 5.296875 -10.976562 5.296875 -9.375 C 5.296875 -7.769531 5.445312 -6.488281 5.75 -5.53125 C 6.050781 -4.570312 6.484375 -3.890625 7.046875 -3.484375 C 7.617188 -3.078125 8.320312 -2.875 9.15625 -2.875 Z M 9.15625 -2.875 "/></g></g></g><g fill="#00bf63" fill-opacity="1"><g transform="translate(79.019361, 67.294303)"><g><path d="M 9.15625 0.265625 C 7.625 0.265625 6.289062 -0.0703125 5.15625 -0.75 C 4.03125 -1.425781 3.148438 -2.484375 2.515625 -3.921875 C 1.890625 -5.359375 1.578125 -7.175781 1.578125 -9.375 C 1.578125 -11.570312 1.890625 -13.390625 2.515625 -14.828125 C 3.148438 -16.265625 4.03125 -17.320312 5.15625 -18 C 6.289062 -18.675781 7.625 -19.015625 9.15625 -19.015625 C 10.695312 -19.015625 12.03125 -18.675781 13.15625 -18 C 14.289062 -17.320312 15.171875 -16.265625 15.796875 -14.828125 C 16.429688 -13.390625 16.75 -11.570312 16.75 -9.375 C 16.75 -7.175781 16.429688 -5.359375 15.796875 -3.921875 C 15.171875 -2.484375 14.289062 -1.425781 13.15625 -0.75 C 12.03125 -0.0703125 10.695312 0.265625 9.15625 0.265625 Z M 9.15625 -2.875 C 9.988281 -2.875 10.6875 -3.078125 11.25 -3.484375 C 11.820312 -3.890625 12.257812 -4.570312 12.5625 -5.53125 C 12.863281 -6.488281 13.015625 -7.769531 13.015625 -9.375 C 13.015625 -10.976562 12.863281 -12.257812 12.5625 -13.21875 C 12.257812 -14.175781 11.820312 -14.859375 11.25 -15.265625 C 10.6875 -15.671875 9.988281 -15.875 9.15625 -15.875 C 8.320312 -15.875 7.617188 -15.671875 7.046875 -15.265625 C 6.484375 -14.859375 6.050781 -14.175781 5.75 -13.21875 C 5.445312 -12.257812 5.296875 -10.976562 5.296875 -9.375 C 5.296875 -7.769531 5.445312 -6.488281 5.75 -5.53125 C 6.050781 -4.570312 6.484375 -3.890625 7.046875 -3.484375 C 7.617188 -3.078125 8.320312 -2.875 9.15625 -2.875 Z M 9.15625 -2.875 "/></g></g></g><g fill="#00bf63" fill-opacity="1"><g transform="translate(11.822789, 73.579274)"><g><path d="M 9.15625 0.265625 C 7.625 0.265625 6.289062 -0.0703125 5.15625 -0.75 C 4.03125 -1.425781 3.148438 -2.484375 2.515625 -3.921875 C 1.890625 -5.359375 1.578125 -7.175781 1.578125 -9.375 C 1.578125 -11.570312 1.890625 -13.390625 2.515625 -14.828125 C 3.148438 -16.265625 4.03125 -17.320312 5.15625 -18 C 6.289062 -18.675781 7.625 -19.015625 9.15625 -19.015625 C 10.695312 -19.015625 12.03125 -18.675781 13.15625 -18 C 14.289062 -17.320312 15.171875 -16.265625 15.796875 -14.828125 C 16.429688 -13.390625 16.75 -11.570312 16.75 -9.375 C 16.75 -7.175781 16.429688 -5.359375 15.796875 -3.921875 C 15.171875 -2.484375 14.289062 -1.425781 13.15625 -0.75 C 12.03125 -0.0703125 10.695312 0.265625 9.15625 0.265625 Z M 9.15625 -2.875 C 9.988281 -2.875 10.6875 -3.078125 11.25 -3.484375 C 11.820312 -3.890625 12.257812 -4.570312 12.5625 -5.53125 C 12.863281 -6.488281 13.015625 -7.769531 13.015625 -9.375 C 13.015625 -10.976562 12.863281 -12.257812 12.5625 -13.21875 C 12.257812 -14.175781 11.820312 -14.859375 11.25 -15.265625 C 10.6875 -15.671875 9.988281 -15.875 9.15625 -15.875 C 8.320312 -15.875 7.617188 -15.671875 7.046875 -15.265625 C 6.484375 -14.859375 6.050781 -14.175781 5.75 -13.21875 C 5.445312 -12.257812 5.296875 -10.976562 5.296875 -9.375 C 5.296875 -7.769531 5.445312 -6.488281 5.75 -5.53125 C 6.050781 -4.570312 6.484375 -3.890625 7.046875 -3.484375 C 7.617188 -3.078125 8.320312 -2.875 9.15625 -2.875 Z M 9.15625 -2.875 "/></g></g></g><path stroke-linecap="butt" transform="matrix(0.75, 0, 0, 0.75, -1.77445, 92.363233)" fill="none" stroke-linejoin="miter" d="M 177.803444 188.000076 L 152.074276 188.000076 L 142.766984 159.479241 L 95.371147 159.479241 L 86.058647 188.000076 L 60.923228 188.000076 L 103.662815 64.265693 L 135.063858 64.265693 Z M 117.881565 90.078195 L 101.970106 138.911532 L 135.99615 138.911532 L 120.001357 90.078195 Z M 234.506573 189.776118 C 225.928448 189.776118 218.298239 188.718827 211.615947 186.604243 C 204.928446 184.48966 199.355529 181.708409 194.897196 178.265701 C 190.438862 174.822992 187.027403 171.04695 184.657612 166.927158 L 198.115946 150.505282 L 200.230529 150.505282 C 203.954488 156.036533 208.678446 160.437575 214.407613 163.708408 C 220.131572 166.98445 226.834698 168.619867 234.506573 168.619867 C 241.053449 168.619867 245.990949 167.23445 249.319074 164.474033 C 252.647199 161.708408 254.313866 157.901116 254.313866 153.046949 C 254.313866 150.114657 253.777408 147.656324 252.704491 145.682365 C 251.631574 143.708407 249.855532 142.015698 247.371157 140.60424 C 244.886782 139.192782 241.532615 137.97924 237.29824 136.963615 L 221.386781 133.328198 C 210.272197 130.786531 201.996154 126.567781 196.548237 120.671947 C 191.105529 114.776113 188.38157 107.119863 188.38157 97.697987 C 188.38157 90.697987 190.13157 84.546945 193.626362 79.244861 C 197.126362 73.942777 202.220113 69.822985 208.907613 66.890694 C 215.589905 63.953193 223.589906 62.489652 232.897198 62.489652 C 242.433657 62.489652 250.600324 63.74486 257.402408 66.255277 C 264.199283 68.765694 269.938867 72.614652 274.621159 77.807361 L 262.5222 94.395904 L 260.402408 94.395904 C 256.907616 90.729237 252.902408 87.979237 248.386782 86.140695 C 243.871157 84.307361 238.709698 83.390695 232.897198 83.390695 C 226.183656 83.390695 221.079489 84.578195 217.579489 86.947987 C 214.079488 89.317778 212.334697 92.588612 212.334697 96.765696 C 212.334697 100.656321 213.558655 103.760488 216.016989 106.072988 C 218.470114 108.385488 222.714906 110.19278 228.751364 111.489655 L 245.001365 114.875072 C 257.0222 117.416739 265.735742 121.718822 271.152409 127.781323 C 276.569076 133.849031 279.277409 141.76049 279.277409 151.520907 C 279.277409 159.255283 277.615951 165.979242 274.282617 171.708409 C 270.954492 177.432367 265.933659 181.880284 259.220116 185.036535 C 252.506574 188.197993 244.26699 189.776118 234.506573 189.776118 Z M 324.470121 188.000076 L 302.043036 188.000076 L 302.043036 64.265693 L 334.03783 64.265693 L 365.350332 155.244866 L 367.126373 155.244866 L 398.272209 64.265693 L 429.501378 64.265693 L 429.501378 188.000076 L 406.313876 188.000076 L 406.313876 106.244863 L 404.194084 105.906321 L 375.589916 188.000076 L 355.194081 188.000076 L 326.589913 105.906321 L 324.470121 106.244863 Z M 324.470121 188.000076 " stroke="#00bf63" stroke-width="12.349977" stroke-opacity="1" stroke-miterlimit="4"/><g fill="#ffffff" fill-opacity="1"><g transform="translate(42.522423, 233.363224)"><g><path d="M 89.0625 0 L 69.765625 0 L 62.78125 -21.390625 L 27.234375 -21.390625 L 20.25 0 L 1.390625 0 L 33.453125 -92.796875 L 57 -92.796875 Z M 44.109375 -73.4375 L 32.1875 -36.8125 L 57.703125 -36.8125 L 45.703125 -73.4375 Z M 44.109375 -73.4375 "/></g></g></g><g fill="#ffffff" fill-opacity="1"><g transform="translate(132.973806, 233.363224)"><g><path d="M 41.140625 1.328125 C 34.703125 1.328125 28.972656 0.535156 23.953125 -1.046875 C 18.941406 -2.628906 14.765625 -4.710938 11.421875 -7.296875 C 8.078125 -9.878906 5.519531 -12.71875 3.75 -15.8125 L 13.84375 -28.125 L 15.421875 -28.125 C 18.210938 -23.976562 21.753906 -20.675781 26.046875 -18.21875 C 30.347656 -15.757812 35.378906 -14.53125 41.140625 -14.53125 C 46.046875 -14.53125 49.742188 -15.566406 52.234375 -17.640625 C 54.734375 -19.710938 55.984375 -22.570312 55.984375 -26.21875 C 55.984375 -28.414062 55.582031 -30.253906 54.78125 -31.734375 C 53.976562 -33.210938 52.644531 -34.484375 50.78125 -35.546875 C 48.914062 -36.609375 46.398438 -37.519531 43.234375 -38.28125 L 31.296875 -41 C 22.960938 -42.90625 16.75 -46.066406 12.65625 -50.484375 C 8.570312 -54.910156 6.53125 -60.660156 6.53125 -67.734375 C 6.53125 -72.972656 7.84375 -77.582031 10.46875 -81.5625 C 13.09375 -85.539062 16.910156 -88.628906 21.921875 -90.828125 C 26.941406 -93.035156 32.941406 -94.140625 39.921875 -94.140625 C 47.078125 -94.140625 53.203125 -93.195312 58.296875 -91.3125 C 63.398438 -89.425781 67.707031 -86.535156 71.21875 -82.640625 L 62.140625 -70.203125 L 60.5625 -70.203125 C 57.9375 -72.953125 54.929688 -75.015625 51.546875 -76.390625 C 48.160156 -77.765625 44.285156 -78.453125 39.921875 -78.453125 C 34.890625 -78.453125 31.0625 -77.5625 28.4375 -75.78125 C 25.8125 -74.007812 24.5 -71.554688 24.5 -68.421875 C 24.5 -65.503906 25.421875 -63.175781 27.265625 -61.4375 C 29.109375 -59.707031 32.289062 -58.359375 36.8125 -57.390625 L 49 -54.84375 C 58.019531 -52.9375 64.5625 -49.707031 68.625 -45.15625 C 72.6875 -40.613281 74.71875 -34.679688 74.71875 -27.359375 C 74.71875 -21.554688 73.46875 -16.507812 70.96875 -12.21875 C 68.46875 -7.925781 64.695312 -4.59375 59.65625 -2.21875 C 54.625 0.144531 48.453125 1.328125 41.140625 1.328125 Z M 41.140625 1.328125 "/></g></g></g><g fill="#ffffff" fill-opacity="1"><g transform="translate(212.697967, 233.363224)"><g><path d="M 28.875 0 L 12.0625 0 L 12.0625 -92.796875 L 36.0625 -92.796875 L 59.546875 -24.5625 L 60.875 -24.5625 L 84.234375 -92.796875 L 107.65625 -92.796875 L 107.65625 0 L 90.265625 0 L 90.265625 -61.3125 L 88.671875 -61.578125 L 67.21875 0 L 51.921875 0 L 30.46875 -61.578125 L 28.875 -61.3125 Z M 28.875 0 "/></g></g></g><g fill="#00bf63" fill-opacity="1"><g transform="translate(315.702334, 112.806139)"><g><path d="M 0.984375 0 L 0.984375 -3.0625 L 5.515625 -3.0625 L 5.515625 -14.734375 L 5.21875 -14.8125 C 4.582031 -14.5 3.953125 -14.253906 3.328125 -14.078125 C 2.703125 -13.898438 1.992188 -13.757812 1.203125 -13.65625 L 1.203125 -16.828125 C 3.285156 -17.265625 4.96875 -17.90625 6.25 -18.75 L 9.1875 -18.75 L 9.1875 -3.0625 L 13.21875 -3.0625 L 13.21875 0 Z M 0.984375 0 "/></g></g></g><g fill="#00bf63" fill-opacity="1"><g transform="translate(349.339112, 107.605687)"><g><path d="M 9.15625 0.265625 C 7.625 0.265625 6.289062 -0.0703125 5.15625 -0.75 C 4.03125 -1.425781 3.148438 -2.484375 2.515625 -3.921875 C 1.890625 -5.359375 1.578125 -7.175781 1.578125 -9.375 C 1.578125 -11.570312 1.890625 -13.390625 2.515625 -14.828125 C 3.148438 -16.265625 4.03125 -17.320312 5.15625 -18 C 6.289062 -18.675781 7.625 -19.015625 9.15625 -19.015625 C 10.695312 -19.015625 12.03125 -18.675781 13.15625 -18 C 14.289062 -17.320312 15.171875 -16.265625 15.796875 -14.828125 C 16.429688 -13.390625 16.75 -11.570312 16.75 -9.375 C 16.75 -7.175781 16.429688 -5.359375 15.796875 -3.921875 C 15.171875 -2.484375 14.289062 -1.425781 13.15625 -0.75 C 12.03125 -0.0703125 10.695312 0.265625 9.15625 0.265625 Z M 9.15625 -2.875 C 9.988281 -2.875 10.6875 -3.078125 11.25 -3.484375 C 11.820312 -3.890625 12.257812 -4.570312 12.5625 -5.53125 C 12.863281 -6.488281 13.015625 -7.769531 13.015625 -9.375 C 13.015625 -10.976562 12.863281 -12.257812 12.5625 -13.21875 C 12.257812 -14.175781 11.820312 -14.859375 11.25 -15.265625 C 10.6875 -15.671875 9.988281 -15.875 9.15625 -15.875 C 8.320312 -15.875 7.617188 -15.671875 7.046875 -15.265625 C 6.484375 -14.859375 6.050781 -14.175781 5.75 -13.21875 C 5.445312 -12.257812 5.296875 -10.976562 5.296875 -9.375 C 5.296875 -7.769531 5.445312 -6.488281 5.75 -5.53125 C 6.050781 -4.570312 6.484375 -3.890625 7.046875 -3.484375 C 7.617188 -3.078125 8.320312 -2.875 9.15625 -2.875 Z M 9.15625 -2.875 "/></g></g></g><g fill="#00bf63" fill-opacity="1"><g transform="translate(248.589715, 108.674121)"><g><path d="M 9.15625 0.265625 C 7.625 0.265625 6.289062 -0.0703125 5.15625 -0.75 C 4.03125 -1.425781 3.148438 -2.484375 2.515625 -3.921875 C 1.890625 -5.359375 1.578125 -7.175781 1.578125 -9.375 C 1.578125 -11.570312 1.890625 -13.390625 2.515625 -14.828125 C 3.148438 -16.265625 4.03125 -17.320312 5.15625 -18 C 6.289062 -18.675781 7.625 -19.015625 9.15625 -19.015625 C 10.695312 -19.015625 12.03125 -18.675781 13.15625 -18 C 14.289062 -17.320312 15.171875 -16.265625 15.796875 -14.828125 C 16.429688 -13.390625 16.75 -11.570312 16.75 -9.375 C 16.75 -7.175781 16.429688 -5.359375 15.796875 -3.921875 C 15.171875 -2.484375 14.289062 -1.425781 13.15625 -0.75 C 12.03125 -0.0703125 10.695312 0.265625 9.15625 0.265625 Z M 9.15625 -2.875 C 9.988281 -2.875 10.6875 -3.078125 11.25 -3.484375 C 11.820312 -3.890625 12.257812 -4.570312 12.5625 -5.53125 C 12.863281 -6.488281 13.015625 -7.769531 13.015625 -9.375 C 13.015625 -10.976562 12.863281 -12.257812 12.5625 -13.21875 C 12.257812 -14.175781 11.820312 -14.859375 11.25 -15.265625 C 10.6875 -15.671875 9.988281 -15.875 9.15625 -15.875 C 8.320312 -15.875 7.617188 -15.671875 7.046875 -15.265625 C 6.484375 -14.859375 6.050781 -14.175781 5.75 -13.21875 C 5.445312 -12.257812 5.296875 -10.976562 5.296875 -9.375 C 5.296875 -7.769531 5.445312 -6.488281 5.75 -5.53125 C 6.050781 -4.570312 6.484375 -3.890625 7.046875 -3.484375 C 7.617188 -3.078125 8.320312 -2.875 9.15625 -2.875 Z M 9.15625 -2.875 "/></g></g></g><g fill="#00bf63" fill-opacity="1"><g transform="translate(282.142544, 113.890665)"><g><path d="M 9.15625 0.265625 C 7.625 0.265625 6.289062 -0.0703125 5.15625 -0.75 C 4.03125 -1.425781 3.148438 -2.484375 2.515625 -3.921875 C 1.890625 -5.359375 1.578125 -7.175781 1.578125 -9.375 C 1.578125 -11.570312 1.890625 -13.390625 2.515625 -14.828125 C 3.148438 -16.265625 4.03125 -17.320312 5.15625 -18 C 6.289062 -18.675781 7.625 -19.015625 9.15625 -19.015625 C 10.695312 -19.015625 12.03125 -18.675781 13.15625 -18 C 14.289062 -17.320312 15.171875 -16.265625 15.796875 -14.828125 C 16.429688 -13.390625 16.75 -11.570312 16.75 -9.375 C 16.75 -7.175781 16.429688 -5.359375 15.796875 -3.921875 C 15.171875 -2.484375 14.289062 -1.425781 13.15625 -0.75 C 12.03125 -0.0703125 10.695312 0.265625 9.15625 0.265625 Z M 9.15625 -2.875 C 9.988281 -2.875 10.6875 -3.078125 11.25 -3.484375 C 11.820312 -3.890625 12.257812 -4.570312 12.5625 -5.53125 C 12.863281 -6.488281 13.015625 -7.769531 13.015625 -9.375 C 13.015625 -10.976562 12.863281 -12.257812 12.5625 -13.21875 C 12.257812 -14.175781 11.820312 -14.859375 11.25 -15.265625 C 10.6875 -15.671875 9.988281 -15.875 9.15625 -15.875 C 8.320312 -15.875 7.617188 -15.671875 7.046875 -15.265625 C 6.484375 -14.859375 6.050781 -14.175781 5.75 -13.21875 C 5.445312 -12.257812 5.296875 -10.976562 5.296875 -9.375 C 5.296875 -7.769531 5.445312 -6.488281 5.75 -5.53125 C 6.050781 -4.570312 6.484375 -3.890625 7.046875 -3.484375 C 7.617188 -3.078125 8.320312 -2.875 9.15625 -2.875 Z M 9.15625 -2.875 "/></g></g></g><g fill="#00bf63" fill-opacity="1"><g transform="translate(181.665331, 116.722113)"><g><path d="M 0.984375 0 L 0.984375 -3.0625 L 5.515625 -3.0625 L 5.515625 -14.734375 L 5.21875 -14.8125 C 4.582031 -14.5 3.953125 -14.253906 3.328125 -14.078125 C 2.703125 -13.898438 1.992188 -13.757812 1.203125 -13.65625 L 1.203125 -16.828125 C 3.285156 -17.265625 4.96875 -17.90625 6.25 -18.75 L 9.1875 -18.75 L 9.1875 -3.0625 L 13.21875 -3.0625 L 13.21875 0 Z M 0.984375 0 "/></g></g></g><g fill="#00bf63" fill-opacity="1"><g transform="translate(213.056388, 111.800531)"><g><path d="M 9.15625 0.265625 C 7.625 0.265625 6.289062 -0.0703125 5.15625 -0.75 C 4.03125 -1.425781 3.148438 -2.484375 2.515625 -3.921875 C 1.890625 -5.359375 1.578125 -7.175781 1.578125 -9.375 C 1.578125 -11.570312 1.890625 -13.390625 2.515625 -14.828125 C 3.148438 -16.265625 4.03125 -17.320312 5.15625 -18 C 6.289062 -18.675781 7.625 -19.015625 9.15625 -19.015625 C 10.695312 -19.015625 12.03125 -18.675781 13.15625 -18 C 14.289062 -17.320312 15.171875 -16.265625 15.796875 -14.828125 C 16.429688 -13.390625 16.75 -11.570312 16.75 -9.375 C 16.75 -7.175781 16.429688 -5.359375 15.796875 -3.921875 C 15.171875 -2.484375 14.289062 -1.425781 13.15625 -0.75 C 12.03125 -0.0703125 10.695312 0.265625 9.15625 0.265625 Z M 9.15625 -2.875 C 9.988281 -2.875 10.6875 -3.078125 11.25 -3.484375 C 11.820312 -3.890625 12.257812 -4.570312 12.5625 -5.53125 C 12.863281 -6.488281 13.015625 -7.769531 13.015625 -9.375 C 13.015625 -10.976562 12.863281 -12.257812 12.5625 -13.21875 C 12.257812 -14.175781 11.820312 -14.859375 11.25 -15.265625 C 10.6875 -15.671875 9.988281 -15.875 9.15625 -15.875 C 8.320312 -15.875 7.617188 -15.671875 7.046875 -15.265625 C 6.484375 -14.859375 6.050781 -14.175781 5.75 -13.21875 C 5.445312 -12.257812 5.296875 -10.976562 5.296875 -9.375 C 5.296875 -7.769531 5.445312 -6.488281 5.75 -5.53125 C 6.050781 -4.570312 6.484375 -3.890625 7.046875 -3.484375 C 7.617188 -3.078125 8.320312 -2.875 9.15625 -2.875 Z M 9.15625 -2.875 "/></g></g></g><g fill="#00bf63" fill-opacity="1"><g transform="translate(112.306989, 113.167648)"><g><path d="M 9.15625 0.265625 C 7.625 0.265625 6.289062 -0.0703125 5.15625 -0.75 C 4.03125 -1.425781 3.148438 -2.484375 2.515625 -3.921875 C 1.890625 -5.359375 1.578125 -7.175781 1.578125 -9.375 C 1.578125 -11.570312 1.890625 -13.390625 2.515625 -14.828125 C 3.148438 -16.265625 4.03125 -17.320312 5.15625 -18 C 6.289062 -18.675781 7.625 -19.015625 9.15625 -19.015625 C 10.695312 -19.015625 12.03125 -18.675781 13.15625 -18 C 14.289062 -17.320312 15.171875 -16.265625 15.796875 -14.828125 C 16.429688 -13.390625 16.75 -11.570312 16.75 -9.375 C 16.75 -7.175781 16.429688 -5.359375 15.796875 -3.921875 C 15.171875 -2.484375 14.289062 -1.425781 13.15625 -0.75 C 12.03125 -0.0703125 10.695312 0.265625 9.15625 0.265625 Z M 9.15625 -2.875 C 9.988281 -2.875 10.6875 -3.078125 11.25 -3.484375 C 11.820312 -3.890625 12.257812 -4.570312 12.5625 -5.53125 C 12.863281 -6.488281 13.015625 -7.769531 13.015625 -9.375 C 13.015625 -10.976562 12.863281 -12.257812 12.5625 -13.21875 C 12.257812 -14.175781 11.820312 -14.859375 11.25 -15.265625 C 10.6875 -15.671875 9.988281 -15.875 9.15625 -15.875 C 8.320312 -15.875 7.617188 -15.671875 7.046875 -15.265625 C 6.484375 -14.859375 6.050781 -14.175781 5.75 -13.21875 C 5.445312 -12.257812 5.296875 -10.976562 5.296875 -9.375 C 5.296875 -7.769531 5.445312 -6.488281 5.75 -5.53125 C 6.050781 -4.570312 6.484375 -3.890625 7.046875 -3.484375 C 7.617188 -3.078125 8.320312 -2.875 9.15625 -2.875 Z M 9.15625 -2.875 "/></g></g></g><g fill="#00bf63" fill-opacity="1"><g transform="translate(148.105512, 113.890665)"><g><path d="M 0.984375 0 L 0.984375 -3.0625 L 5.515625 -3.0625 L 5.515625 -14.734375 L 5.21875 -14.8125 C 4.582031 -14.5 3.953125 -14.253906 3.328125 -14.078125 C 2.703125 -13.898438 1.992188 -13.757812 1.203125 -13.65625 L 1.203125 -16.828125 C 3.285156 -17.265625 4.96875 -17.90625 6.25 -18.75 L 9.1875 -18.75 L 9.1875 -3.0625 L 13.21875 -3.0625 L 13.21875 0 Z M 0.984375 0 "/></g></g></g><g fill="#00bf63" fill-opacity="1"><g transform="translate(47.62131, 114.864105)"><g><path d="M 0.984375 0 L 0.984375 -3.0625 L 5.515625 -3.0625 L 5.515625 -14.734375 L 5.21875 -14.8125 C 4.582031 -14.5 3.953125 -14.253906 3.328125 -14.078125 C 2.703125 -13.898438 1.992188 -13.757812 1.203125 -13.65625 L 1.203125 -16.828125 C 3.285156 -17.265625 4.96875 -17.90625 6.25 -18.75 L 9.1875 -18.75 L 9.1875 -3.0625 L 13.21875 -3.0625 L 13.21875 0 Z M 0.984375 0 "/></g></g></g><g fill="#00bf63" fill-opacity="1"><g transform="translate(81.272072, 109.663653)"><g><path d="M 0.984375 0 L 0.984375 -3.0625 L 5.515625 -3.0625 L 5.515625 -14.734375 L 5.21875 -14.8125 C 4.582031 -14.5 3.953125 -14.253906 3.328125 -14.078125 C 2.703125 -13.898438 1.992188 -13.757812 1.203125 -13.65625 L 1.203125 -16.828125 C 3.285156 -17.265625 4.96875 -17.90625 6.25 -18.75 L 9.1875 -18.75 L 9.1875 -3.0625 L 13.21875 -3.0625 L 13.21875 0 Z M 0.984375 0 "/></g></g></g><g fill="#00bf63" fill-opacity="1"><g transform="translate(14.0755, 115.948631)"><g><path d="M 0.984375 0 L 0.984375 -3.0625 L 5.515625 -3.0625 L 5.515625 -14.734375 L 5.21875 -14.8125 C 4.582031 -14.5 3.953125 -14.253906 3.328125 -14.078125 C 2.703125 -13.898438 1.992188 -13.757812 1.203125 -13.65625 L 1.203125 -16.828125 C 3.285156 -17.265625 4.96875 -17.90625 6.25 -18.75 L 9.1875 -18.75 L 9.1875 -3.0625 L 13.21875 -3.0625 L 13.21875 0 Z M 0.984375 0 "/></g></g></g><g fill="#00bf63" fill-opacity="1"><g transform="translate(349.339112, 149.975037)"><g><path d="M 9.15625 0.265625 C 7.625 0.265625 6.289062 -0.0703125 5.15625 -0.75 C 4.03125 -1.425781 3.148438 -2.484375 2.515625 -3.921875 C 1.890625 -5.359375 1.578125 -7.175781 1.578125 -9.375 C 1.578125 -11.570312 1.890625 -13.390625 2.515625 -14.828125 C 3.148438 -16.265625 4.03125 -17.320312 5.15625 -18 C 6.289062 -18.675781 7.625 -19.015625 9.15625 -19.015625 C 10.695312 -19.015625 12.03125 -18.675781 13.15625 -18 C 14.289062 -17.320312 15.171875 -16.265625 15.796875 -14.828125 C 16.429688 -13.390625 16.75 -11.570312 16.75 -9.375 C 16.75 -7.175781 16.429688 -5.359375 15.796875 -3.921875 C 15.171875 -2.484375 14.289062 -1.425781 13.15625 -0.75 C 12.03125 -0.0703125 10.695312 0.265625 9.15625 0.265625 Z M 9.15625 -2.875 C 9.988281 -2.875 10.6875 -3.078125 11.25 -3.484375 C 11.820312 -3.890625 12.257812 -4.570312 12.5625 -5.53125 C 12.863281 -6.488281 13.015625 -7.769531 13.015625 -9.375 C 13.015625 -10.976562 12.863281 -12.257812 12.5625 -13.21875 C 12.257812 -14.175781 11.820312 -14.859375 11.25 -15.265625 C 10.6875 -15.671875 9.988281 -15.875 9.15625 -15.875 C 8.320312 -15.875 7.617188 -15.671875 7.046875 -15.265625 C 6.484375 -14.859375 6.050781 -14.175781 5.75 -13.21875 C 5.445312 -12.257812 5.296875 -10.976562 5.296875 -9.375 C 5.296875 -7.769531 5.445312 -6.488281 5.75 -5.53125 C 6.050781 -4.570312 6.484375 -3.890625 7.046875 -3.484375 C 7.617188 -3.078125 8.320312 -2.875 9.15625 -2.875 Z M 9.15625 -2.875 "/></g></g></g><g fill="#00bf63" fill-opacity="1"><g transform="translate(11.822789, 158.317988)"><g><path d="M 9.15625 0.265625 C 7.625 0.265625 6.289062 -0.0703125 5.15625 -0.75 C 4.03125 -1.425781 3.148438 -2.484375 2.515625 -3.921875 C 1.890625 -5.359375 1.578125 -7.175781 1.578125 -9.375 C 1.578125 -11.570312 1.890625 -13.390625 2.515625 -14.828125 C 3.148438 -16.265625 4.03125 -17.320312 5.15625 -18 C 6.289062 -18.675781 7.625 -19.015625 9.15625 -19.015625 C 10.695312 -19.015625 12.03125 -18.675781 13.15625 -18 C 14.289062 -17.320312 15.171875 -16.265625 15.796875 -14.828125 C 16.429688 -13.390625 16.75 -11.570312 16.75 -9.375 C 16.75 -7.175781 16.429688 -5.359375 15.796875 -3.921875 C 15.171875 -2.484375 14.289062 -1.425781 13.15625 -0.75 C 12.03125 -0.0703125 10.695312 0.265625 9.15625 0.265625 Z M 9.15625 -2.875 C 9.988281 -2.875 10.6875 -3.078125 11.25 -3.484375 C 11.820312 -3.890625 12.257812 -4.570312 12.5625 -5.53125 C 12.863281 -6.488281 13.015625 -7.769531 13.015625 -9.375 C 13.015625 -10.976562 12.863281 -12.257812 12.5625 -13.21875 C 12.257812 -14.175781 11.820312 -14.859375 11.25 -15.265625 C 10.6875 -15.671875 9.988281 -15.875 9.15625 -15.875 C 8.320312 -15.875 7.617188 -15.671875 7.046875 -15.265625 C 6.484375 -14.859375 6.050781 -14.175781 5.75 -13.21875 C 5.445312 -12.257812 5.296875 -10.976562 5.296875 -9.375 C 5.296875 -7.769531 5.445312 -6.488281 5.75 -5.53125 C 6.050781 -4.570312 6.484375 -3.890625 7.046875 -3.484375 C 7.617188 -3.078125 8.320312 -2.875 9.15625 -2.875 Z M 9.15625 -2.875 "/></g></g></g><g fill="#00bf63" fill-opacity="1"><g transform="translate(349.339112, 192.344387)"><g><path d="M 0.984375 0 L 0.984375 -3.0625 L 5.515625 -3.0625 L 5.515625 -14.734375 L 5.21875 -14.8125 C 4.582031 -14.5 3.953125 -14.253906 3.328125 -14.078125 C 2.703125 -13.898438 1.992188 -13.757812 1.203125 -13.65625 L 1.203125 -16.828125 C 3.285156 -17.265625 4.96875 -17.90625 6.25 -18.75 L 9.1875 -18.75 L 9.1875 -3.0625 L 13.21875 -3.0625 L 13.21875 0 Z M 0.984375 0 "/></g></g></g><g fill="#00bf63" fill-opacity="1"><g transform="translate(11.822789, 200.687331)"><g><path d="M 9.15625 0.265625 C 7.625 0.265625 6.289062 -0.0703125 5.15625 -0.75 C 4.03125 -1.425781 3.148438 -2.484375 2.515625 -3.921875 C 1.890625 -5.359375 1.578125 -7.175781 1.578125 -9.375 C 1.578125 -11.570312 1.890625 -13.390625 2.515625 -14.828125 C 3.148438 -16.265625 4.03125 -17.320312 5.15625 -18 C 6.289062 -18.675781 7.625 -19.015625 9.15625 -19.015625 C 10.695312 -19.015625 12.03125 -18.675781 13.15625 -18 C 14.289062 -17.320312 15.171875 -16.265625 15.796875 -14.828125 C 16.429688 -13.390625 16.75 -11.570312 16.75 -9.375 C 16.75 -7.175781 16.429688 -5.359375 15.796875 -3.921875 C 15.171875 -2.484375 14.289062 -1.425781 13.15625 -0.75 C 12.03125 -0.0703125 10.695312 0.265625 9.15625 0.265625 Z M 9.15625 -2.875 C 9.988281 -2.875 10.6875 -3.078125 11.25 -3.484375 C 11.820312 -3.890625 12.257812 -4.570312 12.5625 -5.53125 C 12.863281 -6.488281 13.015625 -7.769531 13.015625 -9.375 C 13.015625 -10.976562 12.863281 -12.257812 12.5625 -13.21875 C 12.257812 -14.175781 11.820312 -14.859375 11.25 -15.265625 C 10.6875 -15.671875 9.988281 -15.875 9.15625 -15.875 C 8.320312 -15.875 7.617188 -15.671875 7.046875 -15.265625 C 6.484375 -14.859375 6.050781 -14.175781 5.75 -13.21875 C 5.445312 -12.257812 5.296875 -10.976562 5.296875 -9.375 C 5.296875 -7.769531 5.445312 -6.488281 5.75 -5.53125 C 6.050781 -4.570312 6.484375 -3.890625 7.046875 -3.484375 C 7.617188 -3.078125 8.320312 -2.875 9.15625 -2.875 Z M 9.15625 -2.875 "/></g></g></g><g fill="#00bf63" fill-opacity="1"><g transform="translate(349.339112, 234.713759)"><g><path d="M 9.15625 0.265625 C 7.625 0.265625 6.289062 -0.0703125 5.15625 -0.75 C 4.03125 -1.425781 3.148438 -2.484375 2.515625 -3.921875 C 1.890625 -5.359375 1.578125 -7.175781 1.578125 -9.375 C 1.578125 -11.570312 1.890625 -13.390625 2.515625 -14.828125 C 3.148438 -16.265625 4.03125 -17.320312 5.15625 -18 C 6.289062 -18.675781 7.625 -19.015625 9.15625 -19.015625 C 10.695312 -19.015625 12.03125 -18.675781 13.15625 -18 C 14.289062 -17.320312 15.171875 -16.265625 15.796875 -14.828125 C 16.429688 -13.390625 16.75 -11.570312 16.75 -9.375 C 16.75 -7.175781 16.429688 -5.359375 15.796875 -3.921875 C 15.171875 -2.484375 14.289062 -1.425781 13.15625 -0.75 C 12.03125 -0.0703125 10.695312 0.265625 9.15625 0.265625 Z M 9.15625 -2.875 C 9.988281 -2.875 10.6875 -3.078125 11.25 -3.484375 C 11.820312 -3.890625 12.257812 -4.570312 12.5625 -5.53125 C 12.863281 -6.488281 13.015625 -7.769531 13.015625 -9.375 C 13.015625 -10.976562 12.863281 -12.257812 12.5625 -13.21875 C 12.257812 -14.175781 11.820312 -14.859375 11.25 -15.265625 C 10.6875 -15.671875 9.988281 -15.875 9.15625 -15.875 C 8.320312 -15.875 7.617188 -15.671875 7.046875 -15.265625 C 6.484375 -14.859375 6.050781 -14.175781 5.75 -13.21875 C 5.445312 -12.257812 5.296875 -10.976562 5.296875 -9.375 C 5.296875 -7.769531 5.445312 -6.488281 5.75 -5.53125 C 6.050781 -4.570312 6.484375 -3.890625 7.046875 -3.484375 C 7.617188 -3.078125 8.320312 -2.875 9.15625 -2.875 Z M 9.15625 -2.875 "/></g></g></g><g fill="#00bf63" fill-opacity="1"><g transform="translate(14.0755, 243.056688)"><g><path d="M 0.984375 0 L 0.984375 -3.0625 L 5.515625 -3.0625 L 5.515625 -14.734375 L 5.21875 -14.8125 C 4.582031 -14.5 3.953125 -14.253906 3.328125 -14.078125 C 2.703125 -13.898438 1.992188 -13.757812 1.203125 -13.65625 L 1.203125 -16.828125 C 3.285156 -17.265625 4.96875 -17.90625 6.25 -18.75 L 9.1875 -18.75 L 9.1875 -3.0625 L 13.21875 -3.0625 L 13.21875 0 Z M 0.984375 0 "/></g></g></g><g fill="#00bf63" fill-opacity="1"><g transform="translate(315.702334, 282.28356)"><g><path d="M 0.984375 0 L 0.984375 -3.0625 L 5.515625 -3.0625 L 5.515625 -14.734375 L 5.21875 -14.8125 C 4.582031 -14.5 3.953125 -14.253906 3.328125 -14.078125 C 2.703125 -13.898438 1.992188 -13.757812 1.203125 -13.65625 L 1.203125 -16.828125 C 3.285156 -17.265625 4.96875 -17.90625 6.25 -18.75 L 9.1875 -18.75 L 9.1875 -3.0625 L 13.21875 -3.0625 L 13.21875 0 Z M 0.984375 0 "/></g></g></g><g fill="#00bf63" fill-opacity="1"><g transform="translate(349.339112, 277.083104)"><g><path d="M 0.984375 0 L 0.984375 -3.0625 L 5.515625 -3.0625 L 5.515625 -14.734375 L 5.21875 -14.8125 C 4.582031 -14.5 3.953125 -14.253906 3.328125 -14.078125 C 2.703125 -13.898438 1.992188 -13.757812 1.203125 -13.65625 L 1.203125 -16.828125 C 3.285156 -17.265625 4.96875 -17.90625 6.25 -18.75 L 9.1875 -18.75 L 9.1875 -3.0625 L 13.21875 -3.0625 L 13.21875 0 Z M 0.984375 0 "/></g></g></g><g fill="#00bf63" fill-opacity="1"><g transform="translate(248.589715, 278.15156)"><g><path d="M 9.15625 0.265625 C 7.625 0.265625 6.289062 -0.0703125 5.15625 -0.75 C 4.03125 -1.425781 3.148438 -2.484375 2.515625 -3.921875 C 1.890625 -5.359375 1.578125 -7.175781 1.578125 -9.375 C 1.578125 -11.570312 1.890625 -13.390625 2.515625 -14.828125 C 3.148438 -16.265625 4.03125 -17.320312 5.15625 -18 C 6.289062 -18.675781 7.625 -19.015625 9.15625 -19.015625 C 10.695312 -19.015625 12.03125 -18.675781 13.15625 -18 C 14.289062 -17.320312 15.171875 -16.265625 15.796875 -14.828125 C 16.429688 -13.390625 16.75 -11.570312 16.75 -9.375 C 16.75 -7.175781 16.429688 -5.359375 15.796875 -3.921875 C 15.171875 -2.484375 14.289062 -1.425781 13.15625 -0.75 C 12.03125 -0.0703125 10.695312 0.265625 9.15625 0.265625 Z M 9.15625 -2.875 C 9.988281 -2.875 10.6875 -3.078125 11.25 -3.484375 C 11.820312 -3.890625 12.257812 -4.570312 12.5625 -5.53125 C 12.863281 -6.488281 13.015625 -7.769531 13.015625 -9.375 C 13.015625 -10.976562 12.863281 -12.257812 12.5625 -13.21875 C 12.257812 -14.175781 11.820312 -14.859375 11.25 -15.265625 C 10.6875 -15.671875 9.988281 -15.875 9.15625 -15.875 C 8.320312 -15.875 7.617188 -15.671875 7.046875 -15.265625 C 6.484375 -14.859375 6.050781 -14.175781 5.75 -13.21875 C 5.445312 -12.257812 5.296875 -10.976562 5.296875 -9.375 C 5.296875 -7.769531 5.445312 -6.488281 5.75 -5.53125 C 6.050781 -4.570312 6.484375 -3.890625 7.046875 -3.484375 C 7.617188 -3.078125 8.320312 -2.875 9.15625 -2.875 Z M 9.15625 -2.875 "/></g></g></g><g fill="#00bf63" fill-opacity="1"><g transform="translate(282.142544, 283.368072)"><g><path d="M 0.984375 0 L 0.984375 -3.0625 L 5.515625 -3.0625 L 5.515625 -14.734375 L 5.21875 -14.8125 C 4.582031 -14.5 3.953125 -14.253906 3.328125 -14.078125 C 2.703125 -13.898438 1.992188 -13.757812 1.203125 -13.65625 L 1.203125 -16.828125 C 3.285156 -17.265625 4.96875 -17.90625 6.25 -18.75 L 9.1875 -18.75 L 9.1875 -3.0625 L 13.21875 -3.0625 L 13.21875 0 Z M 0.984375 0 "/></g></g></g><g fill="#00bf63" fill-opacity="1"><g transform="translate(179.412619, 286.199527)"><g><path d="M 9.15625 0.265625 C 7.625 0.265625 6.289062 -0.0703125 5.15625 -0.75 C 4.03125 -1.425781 3.148438 -2.484375 2.515625 -3.921875 C 1.890625 -5.359375 1.578125 -7.175781 1.578125 -9.375 C 1.578125 -11.570312 1.890625 -13.390625 2.515625 -14.828125 C 3.148438 -16.265625 4.03125 -17.320312 5.15625 -18 C 6.289062 -18.675781 7.625 -19.015625 9.15625 -19.015625 C 10.695312 -19.015625 12.03125 -18.675781 13.15625 -18 C 14.289062 -17.320312 15.171875 -16.265625 15.796875 -14.828125 C 16.429688 -13.390625 16.75 -11.570312 16.75 -9.375 C 16.75 -7.175781 16.429688 -5.359375 15.796875 -3.921875 C 15.171875 -2.484375 14.289062 -1.425781 13.15625 -0.75 C 12.03125 -0.0703125 10.695312 0.265625 9.15625 0.265625 Z M 9.15625 -2.875 C 9.988281 -2.875 10.6875 -3.078125 11.25 -3.484375 C 11.820312 -3.890625 12.257812 -4.570312 12.5625 -5.53125 C 12.863281 -6.488281 13.015625 -7.769531 13.015625 -9.375 C 13.015625 -10.976562 12.863281 -12.257812 12.5625 -13.21875 C 12.257812 -14.175781 11.820312 -14.859375 11.25 -15.265625 C 10.6875 -15.671875 9.988281 -15.875 9.15625 -15.875 C 8.320312 -15.875 7.617188 -15.671875 7.046875 -15.265625 C 6.484375 -14.859375 6.050781 -14.175781 5.75 -13.21875 C 5.445312 -12.257812 5.296875 -10.976562 5.296875 -9.375 C 5.296875 -7.769531 5.445312 -6.488281 5.75 -5.53125 C 6.050781 -4.570312 6.484375 -3.890625 7.046875 -3.484375 C 7.617188 -3.078125 8.320312 -2.875 9.15625 -2.875 Z M 9.15625 -2.875 "/></g></g></g><g fill="#00bf63" fill-opacity="1"><g transform="translate(213.056388, 281.277946)"><g><path d="M 9.15625 0.265625 C 7.625 0.265625 6.289062 -0.0703125 5.15625 -0.75 C 4.03125 -1.425781 3.148438 -2.484375 2.515625 -3.921875 C 1.890625 -5.359375 1.578125 -7.175781 1.578125 -9.375 C 1.578125 -11.570312 1.890625 -13.390625 2.515625 -14.828125 C 3.148438 -16.265625 4.03125 -17.320312 5.15625 -18 C 6.289062 -18.675781 7.625 -19.015625 9.15625 -19.015625 C 10.695312 -19.015625 12.03125 -18.675781 13.15625 -18 C 14.289062 -17.320312 15.171875 -16.265625 15.796875 -14.828125 C 16.429688 -13.390625 16.75 -11.570312 16.75 -9.375 C 16.75 -7.175781 16.429688 -5.359375 15.796875 -3.921875 C 15.171875 -2.484375 14.289062 -1.425781 13.15625 -0.75 C 12.03125 -0.0703125 10.695312 0.265625 9.15625 0.265625 Z M 9.15625 -2.875 C 9.988281 -2.875 10.6875 -3.078125 11.25 -3.484375 C 11.820312 -3.890625 12.257812 -4.570312 12.5625 -5.53125 C 12.863281 -6.488281 13.015625 -7.769531 13.015625 -9.375 C 13.015625 -10.976562 12.863281 -12.257812 12.5625 -13.21875 C 12.257812 -14.175781 11.820312 -14.859375 11.25 -15.265625 C 10.6875 -15.671875 9.988281 -15.875 9.15625 -15.875 C 8.320312 -15.875 7.617188 -15.671875 7.046875 -15.265625 C 6.484375 -14.859375 6.050781 -14.175781 5.75 -13.21875 C 5.445312 -12.257812 5.296875 -10.976562 5.296875 -9.375 C 5.296875 -7.769531 5.445312 -6.488281 5.75 -5.53125 C 6.050781 -4.570312 6.484375 -3.890625 7.046875 -3.484375 C 7.617188 -3.078125 8.320312 -2.875 9.15625 -2.875 Z M 9.15625 -2.875 "/></g></g></g><g fill="#00bf63" fill-opacity="1"><g transform="translate(112.306989, 282.645055)"><g><path d="M 9.15625 0.265625 C 7.625 0.265625 6.289062 -0.0703125 5.15625 -0.75 C 4.03125 -1.425781 3.148438 -2.484375 2.515625 -3.921875 C 1.890625 -5.359375 1.578125 -7.175781 1.578125 -9.375 C 1.578125 -11.570312 1.890625 -13.390625 2.515625 -14.828125 C 3.148438 -16.265625 4.03125 -17.320312 5.15625 -18 C 6.289062 -18.675781 7.625 -19.015625 9.15625 -19.015625 C 10.695312 -19.015625 12.03125 -18.675781 13.15625 -18 C 14.289062 -17.320312 15.171875 -16.265625 15.796875 -14.828125 C 16.429688 -13.390625 16.75 -11.570312 16.75 -9.375 C 16.75 -7.175781 16.429688 -5.359375 15.796875 -3.921875 C 15.171875 -2.484375 14.289062 -1.425781 13.15625 -0.75 C 12.03125 -0.0703125 10.695312 0.265625 9.15625 0.265625 Z M 9.15625 -2.875 C 9.988281 -2.875 10.6875 -3.078125 11.25 -3.484375 C 11.820312 -3.890625 12.257812 -4.570312 12.5625 -5.53125 C 12.863281 -6.488281 13.015625 -7.769531 13.015625 -9.375 C 13.015625 -10.976562 12.863281 -12.257812 12.5625 -13.21875 C 12.257812 -14.175781 11.820312 -14.859375 11.25 -15.265625 C 10.6875 -15.671875 9.988281 -15.875 9.15625 -15.875 C 8.320312 -15.875 7.617188 -15.671875 7.046875 -15.265625 C 6.484375 -14.859375 6.050781 -14.175781 5.75 -13.21875 C 5.445312 -12.257812 5.296875 -10.976562 5.296875 -9.375 C 5.296875 -7.769531 5.445312 -6.488281 5.75 -5.53125 C 6.050781 -4.570312 6.484375 -3.890625 7.046875 -3.484375 C 7.617188 -3.078125 8.320312 -2.875 9.15625 -2.875 Z M 9.15625 -2.875 "/></g></g></g><g fill="#00bf63" fill-opacity="1"><g transform="translate(148.105512, 283.368072)"><g><path d="M 0.984375 0 L 0.984375 -3.0625 L 5.515625 -3.0625 L 5.515625 -14.734375 L 5.21875 -14.8125 C 4.582031 -14.5 3.953125 -14.253906 3.328125 -14.078125 C 2.703125 -13.898438 1.992188 -13.757812 1.203125 -13.65625 L 1.203125 -16.828125 C 3.285156 -17.265625 4.96875 -17.90625 6.25 -18.75 L 9.1875 -18.75 L 9.1875 -3.0625 L 13.21875 -3.0625 L 13.21875 0 Z M 0.984375 0 "/></g></g></g><g fill="#00bf63" fill-opacity="1"><g transform="translate(47.62131, 284.341519)"><g><path d="M 0.984375 0 L 0.984375 -3.0625 L 5.515625 -3.0625 L 5.515625 -14.734375 L 5.21875 -14.8125 C 4.582031 -14.5 3.953125 -14.253906 3.328125 -14.078125 C 2.703125 -13.898438 1.992188 -13.757812 1.203125 -13.65625 L 1.203125 -16.828125 C 3.285156 -17.265625 4.96875 -17.90625 6.25 -18.75 L 9.1875 -18.75 L 9.1875 -3.0625 L 13.21875 -3.0625 L 13.21875 0 Z M 0.984375 0 "/></g></g></g><g fill="#00bf63" fill-opacity="1"><g transform="translate(79.019361, 279.14106)"><g><path d="M 9.15625 0.265625 C 7.625 0.265625 6.289062 -0.0703125 5.15625 -0.75 C 4.03125 -1.425781 3.148438 -2.484375 2.515625 -3.921875 C 1.890625 -5.359375 1.578125 -7.175781 1.578125 -9.375 C 1.578125 -11.570312 1.890625 -13.390625 2.515625 -14.828125 C 3.148438 -16.265625 4.03125 -17.320312 5.15625 -18 C 6.289062 -18.675781 7.625 -19.015625 9.15625 -19.015625 C 10.695312 -19.015625 12.03125 -18.675781 13.15625 -18 C 14.289062 -17.320312 15.171875 -16.265625 15.796875 -14.828125 C 16.429688 -13.390625 16.75 -11.570312 16.75 -9.375 C 16.75 -7.175781 16.429688 -5.359375 15.796875 -3.921875 C 15.171875 -2.484375 14.289062 -1.425781 13.15625 -0.75 C 12.03125 -0.0703125 10.695312 0.265625 9.15625 0.265625 Z M 9.15625 -2.875 C 9.988281 -2.875 10.6875 -3.078125 11.25 -3.484375 C 11.820312 -3.890625 12.257812 -4.570312 12.5625 -5.53125 C 12.863281 -6.488281 13.015625 -7.769531 13.015625 -9.375 C 13.015625 -10.976562 12.863281 -12.257812 12.5625 -13.21875 C 12.257812 -14.175781 11.820312 -14.859375 11.25 -15.265625 C 10.6875 -15.671875 9.988281 -15.875 9.15625 -15.875 C 8.320312 -15.875 7.617188 -15.671875 7.046875 -15.265625 C 6.484375 -14.859375 6.050781 -14.175781 5.75 -13.21875 C 5.445312 -12.257812 5.296875 -10.976562 5.296875 -9.375 C 5.296875 -7.769531 5.445312 -6.488281 5.75 -5.53125 C 6.050781 -4.570312 6.484375 -3.890625 7.046875 -3.484375 C 7.617188 -3.078125 8.320312 -2.875 9.15625 -2.875 Z M 9.15625 -2.875 "/></g></g></g><g fill="#00bf63" fill-opacity="1"><g transform="translate(14.0755, 285.42606)"><g><path d="M 0.984375 0 L 0.984375 -3.0625 L 5.515625 -3.0625 L 5.515625 -14.734375 L 5.21875 -14.8125 C 4.582031 -14.5 3.953125 -14.253906 3.328125 -14.078125 C 2.703125 -13.898438 1.992188 -13.757812 1.203125 -13.65625 L 1.203125 -16.828125 C 3.285156 -17.265625 4.96875 -17.90625 6.25 -18.75 L 9.1875 -18.75 L 9.1875 -3.0625 L 13.21875 -3.0625 L 13.21875 0 Z M 0.984375 0 "/></g></g></g><g fill="#00bf63" fill-opacity="1"><g transform="translate(315.702334, 324.652903)"><g><path d="M 0.984375 0 L 0.984375 -3.0625 L 5.515625 -3.0625 L 5.515625 -14.734375 L 5.21875 -14.8125 C 4.582031 -14.5 3.953125 -14.253906 3.328125 -14.078125 C 2.703125 -13.898438 1.992188 -13.757812 1.203125 -13.65625 L 1.203125 -16.828125 C 3.285156 -17.265625 4.96875 -17.90625 6.25 -18.75 L 9.1875 -18.75 L 9.1875 -3.0625 L 13.21875 -3.0625 L 13.21875 0 Z M 0.984375 0 "/></g></g></g><g fill="#00bf63" fill-opacity="1"><g transform="translate(349.339112, 319.452447)"><g><path d="M 0.984375 0 L 0.984375 -3.0625 L 5.515625 -3.0625 L 5.515625 -14.734375 L 5.21875 -14.8125 C 4.582031 -14.5 3.953125 -14.253906 3.328125 -14.078125 C 2.703125 -13.898438 1.992188 -13.757812 1.203125 -13.65625 L 1.203125 -16.828125 C 3.285156 -17.265625 4.96875 -17.90625 6.25 -18.75 L 9.1875 -18.75 L 9.1875 -3.0625 L 13.21875 -3.0625 L 13.21875 0 Z M 0.984375 0 "/></g></g></g><g fill="#00bf63" fill-opacity="1"><g transform="translate(248.589715, 320.520903)"><g><path d="M 0.984375 0 L 0.984375 -3.0625 L 5.515625 -3.0625 L 5.515625 -14.734375 L 5.21875 -14.8125 C 4.582031 -14.5 3.953125 -14.253906 3.328125 -14.078125 C 2.703125 -13.898438 1.992188 -13.757812 1.203125 -13.65625 L 1.203125 -16.828125 C 3.285156 -17.265625 4.96875 -17.90625 6.25 -18.75 L 9.1875 -18.75 L 9.1875 -3.0625 L 13.21875 -3.0625 L 13.21875 0 Z M 0.984375 0 "/></g></g></g><g fill="#00bf63" fill-opacity="1"><g transform="translate(282.142544, 325.737415)"><g><path d="M 0.984375 0 L 0.984375 -3.0625 L 5.515625 -3.0625 L 5.515625 -14.734375 L 5.21875 -14.8125 C 4.582031 -14.5 3.953125 -14.253906 3.328125 -14.078125 C 2.703125 -13.898438 1.992188 -13.757812 1.203125 -13.65625 L 1.203125 -16.828125 C 3.285156 -17.265625 4.96875 -17.90625 6.25 -18.75 L 9.1875 -18.75 L 9.1875 -3.0625 L 13.21875 -3.0625 L 13.21875 0 Z M 0.984375 0 "/></g></g></g><g fill="#00bf63" fill-opacity="1"><g transform="translate(179.412619, 328.56887)"><g><path d="M 9.15625 0.265625 C 7.625 0.265625 6.289062 -0.0703125 5.15625 -0.75 C 4.03125 -1.425781 3.148438 -2.484375 2.515625 -3.921875 C 1.890625 -5.359375 1.578125 -7.175781 1.578125 -9.375 C 1.578125 -11.570312 1.890625 -13.390625 2.515625 -14.828125 C 3.148438 -16.265625 4.03125 -17.320312 5.15625 -18 C 6.289062 -18.675781 7.625 -19.015625 9.15625 -19.015625 C 10.695312 -19.015625 12.03125 -18.675781 13.15625 -18 C 14.289062 -17.320312 15.171875 -16.265625 15.796875 -14.828125 C 16.429688 -13.390625 16.75 -11.570312 16.75 -9.375 C 16.75 -7.175781 16.429688 -5.359375 15.796875 -3.921875 C 15.171875 -2.484375 14.289062 -1.425781 13.15625 -0.75 C 12.03125 -0.0703125 10.695312 0.265625 9.15625 0.265625 Z M 9.15625 -2.875 C 9.988281 -2.875 10.6875 -3.078125 11.25 -3.484375 C 11.820312 -3.890625 12.257812 -4.570312 12.5625 -5.53125 C 12.863281 -6.488281 13.015625 -7.769531 13.015625 -9.375 C 13.015625 -10.976562 12.863281 -12.257812 12.5625 -13.21875 C 12.257812 -14.175781 11.820312 -14.859375 11.25 -15.265625 C 10.6875 -15.671875 9.988281 -15.875 9.15625 -15.875 C 8.320312 -15.875 7.617188 -15.671875 7.046875 -15.265625 C 6.484375 -14.859375 6.050781 -14.175781 5.75 -13.21875 C 5.445312 -12.257812 5.296875 -10.976562 5.296875 -9.375 C 5.296875 -7.769531 5.445312 -6.488281 5.75 -5.53125 C 6.050781 -4.570312 6.484375 -3.890625 7.046875 -3.484375 C 7.617188 -3.078125 8.320312 -2.875 9.15625 -2.875 Z M 9.15625 -2.875 "/></g></g></g><g fill="#00bf63" fill-opacity="1"><g transform="translate(215.3091, 323.647289)"><g><path d="M 0.984375 0 L 0.984375 -3.0625 L 5.515625 -3.0625 L 5.515625 -14.734375 L 5.21875 -14.8125 C 4.582031 -14.5 3.953125 -14.253906 3.328125 -14.078125 C 2.703125 -13.898438 1.992188 -13.757812 1.203125 -13.65625 L 1.203125 -16.828125 C 3.285156 -17.265625 4.96875 -17.90625 6.25 -18.75 L 9.1875 -18.75 L 9.1875 -3.0625 L 13.21875 -3.0625 L 13.21875 0 Z M 0.984375 0 "/></g></g></g><g fill="#00bf63" fill-opacity="1"><g transform="translate(114.559701, 325.014398)"><g><path d="M 0.984375 0 L 0.984375 -3.0625 L 5.515625 -3.0625 L 5.515625 -14.734375 L 5.21875 -14.8125 C 4.582031 -14.5 3.953125 -14.253906 3.328125 -14.078125 C 2.703125 -13.898438 1.992188 -13.757812 1.203125 -13.65625 L 1.203125 -16.828125 C 3.285156 -17.265625 4.96875 -17.90625 6.25 -18.75 L 9.1875 -18.75 L 9.1875 -3.0625 L 13.21875 -3.0625 L 13.21875 0 Z M 0.984375 0 "/></g></g></g><g fill="#00bf63" fill-opacity="1"><g transform="translate(148.105512, 325.737415)"><g><path d="M 0.984375 0 L 0.984375 -3.0625 L 5.515625 -3.0625 L 5.515625 -14.734375 L 5.21875 -14.8125 C 4.582031 -14.5 3.953125 -14.253906 3.328125 -14.078125 C 2.703125 -13.898438 1.992188 -13.757812 1.203125 -13.65625 L 1.203125 -16.828125 C 3.285156 -17.265625 4.96875 -17.90625 6.25 -18.75 L 9.1875 -18.75 L 9.1875 -3.0625 L 13.21875 -3.0625 L 13.21875 0 Z M 0.984375 0 "/></g></g></g><g fill="#00bf63" fill-opacity="1"><g transform="translate(47.62131, 326.710893)"><g><path d="M 9.15625 0.265625 C 7.625 0.265625 6.289062 -0.0703125 5.15625 -0.75 C 4.03125 -1.425781 3.148438 -2.484375 2.515625 -3.921875 C 1.890625 -5.359375 1.578125 -7.175781 1.578125 -9.375 C 1.578125 -11.570312 1.890625 -13.390625 2.515625 -14.828125 C 3.148438 -16.265625 4.03125 -17.320312 5.15625 -18 C 6.289062 -18.675781 7.625 -19.015625 9.15625 -19.015625 C 10.695312 -19.015625 12.03125 -18.675781 13.15625 -18 C 14.289062 -17.320312 15.171875 -16.265625 15.796875 -14.828125 C 16.429688 -13.390625 16.75 -11.570312 16.75 -9.375 C 16.75 -7.175781 16.429688 -5.359375 15.796875 -3.921875 C 15.171875 -2.484375 14.289062 -1.425781 13.15625 -0.75 C 12.03125 -0.0703125 10.695312 0.265625 9.15625 0.265625 Z M 9.15625 -2.875 C 9.988281 -2.875 10.6875 -3.078125 11.25 -3.484375 C 11.820312 -3.890625 12.257812 -4.570312 12.5625 -5.53125 C 12.863281 -6.488281 13.015625 -7.769531 13.015625 -9.375 C 13.015625 -10.976562 12.863281 -12.257812 12.5625 -13.21875 C 12.257812 -14.175781 11.820312 -14.859375 11.25 -15.265625 C 10.6875 -15.671875 9.988281 -15.875 9.15625 -15.875 C 8.320312 -15.875 7.617188 -15.671875 7.046875 -15.265625 C 6.484375 -14.859375 6.050781 -14.175781 5.75 -13.21875 C 5.445312 -12.257812 5.296875 -10.976562 5.296875 -9.375 C 5.296875 -7.769531 5.445312 -6.488281 5.75 -5.53125 C 6.050781 -4.570312 6.484375 -3.890625 7.046875 -3.484375 C 7.617188 -3.078125 8.320312 -2.875 9.15625 -2.875 Z M 9.15625 -2.875 "/></g></g></g><g fill="#00bf63" fill-opacity="1"><g transform="translate(79.019361, 321.510403)"><g><path d="M 9.15625 0.265625 C 7.625 0.265625 6.289062 -0.0703125 5.15625 -0.75 C 4.03125 -1.425781 3.148438 -2.484375 2.515625 -3.921875 C 1.890625 -5.359375 1.578125 -7.175781 1.578125 -9.375 C 1.578125 -11.570312 1.890625 -13.390625 2.515625 -14.828125 C 3.148438 -16.265625 4.03125 -17.320312 5.15625 -18 C 6.289062 -18.675781 7.625 -19.015625 9.15625 -19.015625 C 10.695312 -19.015625 12.03125 -18.675781 13.15625 -18 C 14.289062 -17.320312 15.171875 -16.265625 15.796875 -14.828125 C 16.429688 -13.390625 16.75 -11.570312 16.75 -9.375 C 16.75 -7.175781 16.429688 -5.359375 15.796875 -3.921875 C 15.171875 -2.484375 14.289062 -1.425781 13.15625 -0.75 C 12.03125 -0.0703125 10.695312 0.265625 9.15625 0.265625 Z M 9.15625 -2.875 C 9.988281 -2.875 10.6875 -3.078125 11.25 -3.484375 C 11.820312 -3.890625 12.257812 -4.570312 12.5625 -5.53125 C 12.863281 -6.488281 13.015625 -7.769531 13.015625 -9.375 C 13.015625 -10.976562 12.863281 -12.257812 12.5625 -13.21875 C 12.257812 -14.175781 11.820312 -14.859375 11.25 -15.265625 C 10.6875 -15.671875 9.988281 -15.875 9.15625 -15.875 C 8.320312 -15.875 7.617188 -15.671875 7.046875 -15.265625 C 6.484375 -14.859375 6.050781 -14.175781 5.75 -13.21875 C 5.445312 -12.257812 5.296875 -10.976562 5.296875 -9.375 C 5.296875 -7.769531 5.445312 -6.488281 5.75 -5.53125 C 6.050781 -4.570312 6.484375 -3.890625 7.046875 -3.484375 C 7.617188 -3.078125 8.320312 -2.875 9.15625 -2.875 Z M 9.15625 -2.875 "/></g></g></g><g fill="#00bf63" fill-opacity="1"><g transform="translate(11.822789, 327.795403)"><g><path d="M 9.15625 0.265625 C 7.625 0.265625 6.289062 -0.0703125 5.15625 -0.75 C 4.03125 -1.425781 3.148438 -2.484375 2.515625 -3.921875 C 1.890625 -5.359375 1.578125 -7.175781 1.578125 -9.375 C 1.578125 -11.570312 1.890625 -13.390625 2.515625 -14.828125 C 3.148438 -16.265625 4.03125 -17.320312 5.15625 -18 C 6.289062 -18.675781 7.625 -19.015625 9.15625 -19.015625 C 10.695312 -19.015625 12.03125 -18.675781 13.15625 -18 C 14.289062 -17.320312 15.171875 -16.265625 15.796875 -14.828125 C 16.429688 -13.390625 16.75 -11.570312 16.75 -9.375 C 16.75 -7.175781 16.429688 -5.359375 15.796875 -3.921875 C 15.171875 -2.484375 14.289062 -1.425781 13.15625 -0.75 C 12.03125 -0.0703125 10.695312 0.265625 9.15625 0.265625 Z M 9.15625 -2.875 C 9.988281 -2.875 10.6875 -3.078125 11.25 -3.484375 C 11.820312 -3.890625 12.257812 -4.570312 12.5625 -5.53125 C 12.863281 -6.488281 13.015625 -7.769531 13.015625 -9.375 C 13.015625 -10.976562 12.863281 -12.257812 12.5625 -13.21875 C 12.257812 -14.175781 11.820312 -14.859375 11.25 -15.265625 C 10.6875 -15.671875 9.988281 -15.875 9.15625 -15.875 C 8.320312 -15.875 7.617188 -15.671875 7.046875 -15.265625 C 6.484375 -14.859375 6.050781 -14.175781 5.75 -13.21875 C 5.445312 -12.257812 5.296875 -10.976562 5.296875 -9.375 C 5.296875 -7.769531 5.445312 -6.488281 5.75 -5.53125 C 6.050781 -4.570312 6.484375 -3.890625 7.046875 -3.484375 C 7.617188 -3.078125 8.320312 -2.875 9.15625 -2.875 Z M 9.15625 -2.875 "/></g></g></g><g fill="#00bf63" fill-opacity="1"><g transform="translate(313.449622, 367.022248)"><g><path d="M 9.15625 0.265625 C 7.625 0.265625 6.289062 -0.0703125 5.15625 -0.75 C 4.03125 -1.425781 3.148438 -2.484375 2.515625 -3.921875 C 1.890625 -5.359375 1.578125 -7.175781 1.578125 -9.375 C 1.578125 -11.570312 1.890625 -13.390625 2.515625 -14.828125 C 3.148438 -16.265625 4.03125 -17.320312 5.15625 -18 C 6.289062 -18.675781 7.625 -19.015625 9.15625 -19.015625 C 10.695312 -19.015625 12.03125 -18.675781 13.15625 -18 C 14.289062 -17.320312 15.171875 -16.265625 15.796875 -14.828125 C 16.429688 -13.390625 16.75 -11.570312 16.75 -9.375 C 16.75 -7.175781 16.429688 -5.359375 15.796875 -3.921875 C 15.171875 -2.484375 14.289062 -1.425781 13.15625 -0.75 C 12.03125 -0.0703125 10.695312 0.265625 9.15625 0.265625 Z M 9.15625 -2.875 C 9.988281 -2.875 10.6875 -3.078125 11.25 -3.484375 C 11.820312 -3.890625 12.257812 -4.570312 12.5625 -5.53125 C 12.863281 -6.488281 13.015625 -7.769531 13.015625 -9.375 C 13.015625 -10.976562 12.863281 -12.257812 12.5625 -13.21875 C 12.257812 -14.175781 11.820312 -14.859375 11.25 -15.265625 C 10.6875 -15.671875 9.988281 -15.875 9.15625 -15.875 C 8.320312 -15.875 7.617188 -15.671875 7.046875 -15.265625 C 6.484375 -14.859375 6.050781 -14.175781 5.75 -13.21875 C 5.445312 -12.257812 5.296875 -10.976562 5.296875 -9.375 C 5.296875 -7.769531 5.445312 -6.488281 5.75 -5.53125 C 6.050781 -4.570312 6.484375 -3.890625 7.046875 -3.484375 C 7.617188 -3.078125 8.320312 -2.875 9.15625 -2.875 Z M 9.15625 -2.875 "/></g></g></g><g fill="#00bf63" fill-opacity="1"><g transform="translate(349.339112, 361.821818)"><g><path d="M 9.15625 0.265625 C 7.625 0.265625 6.289062 -0.0703125 5.15625 -0.75 C 4.03125 -1.425781 3.148438 -2.484375 2.515625 -3.921875 C 1.890625 -5.359375 1.578125 -7.175781 1.578125 -9.375 C 1.578125 -11.570312 1.890625 -13.390625 2.515625 -14.828125 C 3.148438 -16.265625 4.03125 -17.320312 5.15625 -18 C 6.289062 -18.675781 7.625 -19.015625 9.15625 -19.015625 C 10.695312 -19.015625 12.03125 -18.675781 13.15625 -18 C 14.289062 -17.320312 15.171875 -16.265625 15.796875 -14.828125 C 16.429688 -13.390625 16.75 -11.570312 16.75 -9.375 C 16.75 -7.175781 16.429688 -5.359375 15.796875 -3.921875 C 15.171875 -2.484375 14.289062 -1.425781 13.15625 -0.75 C 12.03125 -0.0703125 10.695312 0.265625 9.15625 0.265625 Z M 9.15625 -2.875 C 9.988281 -2.875 10.6875 -3.078125 11.25 -3.484375 C 11.820312 -3.890625 12.257812 -4.570312 12.5625 -5.53125 C 12.863281 -6.488281 13.015625 -7.769531 13.015625 -9.375 C 13.015625 -10.976562 12.863281 -12.257812 12.5625 -13.21875 C 12.257812 -14.175781 11.820312 -14.859375 11.25 -15.265625 C 10.6875 -15.671875 9.988281 -15.875 9.15625 -15.875 C 8.320312 -15.875 7.617188 -15.671875 7.046875 -15.265625 C 6.484375 -14.859375 6.050781 -14.175781 5.75 -13.21875 C 5.445312 -12.257812 5.296875 -10.976562 5.296875 -9.375 C 5.296875 -7.769531 5.445312 -6.488281 5.75 -5.53125 C 6.050781 -4.570312 6.484375 -3.890625 7.046875 -3.484375 C 7.617188 -3.078125 8.320312 -2.875 9.15625 -2.875 Z M 9.15625 -2.875 "/></g></g></g><g fill="#00bf63" fill-opacity="1"><g transform="translate(248.589715, 362.890245)"><g><path d="M 0.984375 0 L 0.984375 -3.0625 L 5.515625 -3.0625 L 5.515625 -14.734375 L 5.21875 -14.8125 C 4.582031 -14.5 3.953125 -14.253906 3.328125 -14.078125 C 2.703125 -13.898438 1.992188 -13.757812 1.203125 -13.65625 L 1.203125 -16.828125 C 3.285156 -17.265625 4.96875 -17.90625 6.25 -18.75 L 9.1875 -18.75 L 9.1875 -3.0625 L 13.21875 -3.0625 L 13.21875 0 Z M 0.984375 0 "/></g></g></g><g fill="#00bf63" fill-opacity="1"><g transform="translate(282.142544, 368.106758)"><g><path d="M 9.15625 0.265625 C 7.625 0.265625 6.289062 -0.0703125 5.15625 -0.75 C 4.03125 -1.425781 3.148438 -2.484375 2.515625 -3.921875 C 1.890625 -5.359375 1.578125 -7.175781 1.578125 -9.375 C 1.578125 -11.570312 1.890625 -13.390625 2.515625 -14.828125 C 3.148438 -16.265625 4.03125 -17.320312 5.15625 -18 C 6.289062 -18.675781 7.625 -19.015625 9.15625 -19.015625 C 10.695312 -19.015625 12.03125 -18.675781 13.15625 -18 C 14.289062 -17.320312 15.171875 -16.265625 15.796875 -14.828125 C 16.429688 -13.390625 16.75 -11.570312 16.75 -9.375 C 16.75 -7.175781 16.429688 -5.359375 15.796875 -3.921875 C 15.171875 -2.484375 14.289062 -1.425781 13.15625 -0.75 C 12.03125 -0.0703125 10.695312 0.265625 9.15625 0.265625 Z M 9.15625 -2.875 C 9.988281 -2.875 10.6875 -3.078125 11.25 -3.484375 C 11.820312 -3.890625 12.257812 -4.570312 12.5625 -5.53125 C 12.863281 -6.488281 13.015625 -7.769531 13.015625 -9.375 C 13.015625 -10.976562 12.863281 -12.257812 12.5625 -13.21875 C 12.257812 -14.175781 11.820312 -14.859375 11.25 -15.265625 C 10.6875 -15.671875 9.988281 -15.875 9.15625 -15.875 C 8.320312 -15.875 7.617188 -15.671875 7.046875 -15.265625 C 6.484375 -14.859375 6.050781 -14.175781 5.75 -13.21875 C 5.445312 -12.257812 5.296875 -10.976562 5.296875 -9.375 C 5.296875 -7.769531 5.445312 -6.488281 5.75 -5.53125 C 6.050781 -4.570312 6.484375 -3.890625 7.046875 -3.484375 C 7.617188 -3.078125 8.320312 -2.875 9.15625 -2.875 Z M 9.15625 -2.875 "/></g></g></g><g fill="#00bf63" fill-opacity="1"><g transform="translate(179.412619, 370.938213)"><g><path d="M 9.15625 0.265625 C 7.625 0.265625 6.289062 -0.0703125 5.15625 -0.75 C 4.03125 -1.425781 3.148438 -2.484375 2.515625 -3.921875 C 1.890625 -5.359375 1.578125 -7.175781 1.578125 -9.375 C 1.578125 -11.570312 1.890625 -13.390625 2.515625 -14.828125 C 3.148438 -16.265625 4.03125 -17.320312 5.15625 -18 C 6.289062 -18.675781 7.625 -19.015625 9.15625 -19.015625 C 10.695312 -19.015625 12.03125 -18.675781 13.15625 -18 C 14.289062 -17.320312 15.171875 -16.265625 15.796875 -14.828125 C 16.429688 -13.390625 16.75 -11.570312 16.75 -9.375 C 16.75 -7.175781 16.429688 -5.359375 15.796875 -3.921875 C 15.171875 -2.484375 14.289062 -1.425781 13.15625 -0.75 C 12.03125 -0.0703125 10.695312 0.265625 9.15625 0.265625 Z M 9.15625 -2.875 C 9.988281 -2.875 10.6875 -3.078125 11.25 -3.484375 C 11.820312 -3.890625 12.257812 -4.570312 12.5625 -5.53125 C 12.863281 -6.488281 13.015625 -7.769531 13.015625 -9.375 C 13.015625 -10.976562 12.863281 -12.257812 12.5625 -13.21875 C 12.257812 -14.175781 11.820312 -14.859375 11.25 -15.265625 C 10.6875 -15.671875 9.988281 -15.875 9.15625 -15.875 C 8.320312 -15.875 7.617188 -15.671875 7.046875 -15.265625 C 6.484375 -14.859375 6.050781 -14.175781 5.75 -13.21875 C 5.445312 -12.257812 5.296875 -10.976562 5.296875 -9.375 C 5.296875 -7.769531 5.445312 -6.488281 5.75 -5.53125 C 6.050781 -4.570312 6.484375 -3.890625 7.046875 -3.484375 C 7.617188 -3.078125 8.320312 -2.875 9.15625 -2.875 Z M 9.15625 -2.875 "/></g></g></g><g fill="#00bf63" fill-opacity="1"><g transform="translate(213.056388, 366.016632)"><g><path d="M 9.15625 0.265625 C 7.625 0.265625 6.289062 -0.0703125 5.15625 -0.75 C 4.03125 -1.425781 3.148438 -2.484375 2.515625 -3.921875 C 1.890625 -5.359375 1.578125 -7.175781 1.578125 -9.375 C 1.578125 -11.570312 1.890625 -13.390625 2.515625 -14.828125 C 3.148438 -16.265625 4.03125 -17.320312 5.15625 -18 C 6.289062 -18.675781 7.625 -19.015625 9.15625 -19.015625 C 10.695312 -19.015625 12.03125 -18.675781 13.15625 -18 C 14.289062 -17.320312 15.171875 -16.265625 15.796875 -14.828125 C 16.429688 -13.390625 16.75 -11.570312 16.75 -9.375 C 16.75 -7.175781 16.429688 -5.359375 15.796875 -3.921875 C 15.171875 -2.484375 14.289062 -1.425781 13.15625 -0.75 C 12.03125 -0.0703125 10.695312 0.265625 9.15625 0.265625 Z M 9.15625 -2.875 C 9.988281 -2.875 10.6875 -3.078125 11.25 -3.484375 C 11.820312 -3.890625 12.257812 -4.570312 12.5625 -5.53125 C 12.863281 -6.488281 13.015625 -7.769531 13.015625 -9.375 C 13.015625 -10.976562 12.863281 -12.257812 12.5625 -13.21875 C 12.257812 -14.175781 11.820312 -14.859375 11.25 -15.265625 C 10.6875 -15.671875 9.988281 -15.875 9.15625 -15.875 C 8.320312 -15.875 7.617188 -15.671875 7.046875 -15.265625 C 6.484375 -14.859375 6.050781 -14.175781 5.75 -13.21875 C 5.445312 -12.257812 5.296875 -10.976562 5.296875 -9.375 C 5.296875 -7.769531 5.445312 -6.488281 5.75 -5.53125 C 6.050781 -4.570312 6.484375 -3.890625 7.046875 -3.484375 C 7.617188 -3.078125 8.320312 -2.875 9.15625 -2.875 Z M 9.15625 -2.875 "/></g></g></g><g fill="#00bf63" fill-opacity="1"><g transform="translate(112.306989, 367.38377)"><g><path d="M 9.15625 0.265625 C 7.625 0.265625 6.289062 -0.0703125 5.15625 -0.75 C 4.03125 -1.425781 3.148438 -2.484375 2.515625 -3.921875 C 1.890625 -5.359375 1.578125 -7.175781 1.578125 -9.375 C 1.578125 -11.570312 1.890625 -13.390625 2.515625 -14.828125 C 3.148438 -16.265625 4.03125 -17.320312 5.15625 -18 C 6.289062 -18.675781 7.625 -19.015625 9.15625 -19.015625 C 10.695312 -19.015625 12.03125 -18.675781 13.15625 -18 C 14.289062 -17.320312 15.171875 -16.265625 15.796875 -14.828125 C 16.429688 -13.390625 16.75 -11.570312 16.75 -9.375 C 16.75 -7.175781 16.429688 -5.359375 15.796875 -3.921875 C 15.171875 -2.484375 14.289062 -1.425781 13.15625 -0.75 C 12.03125 -0.0703125 10.695312 0.265625 9.15625 0.265625 Z M 9.15625 -2.875 C 9.988281 -2.875 10.6875 -3.078125 11.25 -3.484375 C 11.820312 -3.890625 12.257812 -4.570312 12.5625 -5.53125 C 12.863281 -6.488281 13.015625 -7.769531 13.015625 -9.375 C 13.015625 -10.976562 12.863281 -12.257812 12.5625 -13.21875 C 12.257812 -14.175781 11.820312 -14.859375 11.25 -15.265625 C 10.6875 -15.671875 9.988281 -15.875 9.15625 -15.875 C 8.320312 -15.875 7.617188 -15.671875 7.046875 -15.265625 C 6.484375 -14.859375 6.050781 -14.175781 5.75 -13.21875 C 5.445312 -12.257812 5.296875 -10.976562 5.296875 -9.375 C 5.296875 -7.769531 5.445312 -6.488281 5.75 -5.53125 C 6.050781 -4.570312 6.484375 -3.890625 7.046875 -3.484375 C 7.617188 -3.078125 8.320312 -2.875 9.15625 -2.875 Z M 9.15625 -2.875 "/></g></g></g><g fill="#00bf63" fill-opacity="1"><g transform="translate(148.105512, 368.106758)"><g><path d="M 0.984375 0 L 0.984375 -3.0625 L 5.515625 -3.0625 L 5.515625 -14.734375 L 5.21875 -14.8125 C 4.582031 -14.5 3.953125 -14.253906 3.328125 -14.078125 C 2.703125 -13.898438 1.992188 -13.757812 1.203125 -13.65625 L 1.203125 -16.828125 C 3.285156 -17.265625 4.96875 -17.90625 6.25 -18.75 L 9.1875 -18.75 L 9.1875 -3.0625 L 13.21875 -3.0625 L 13.21875 0 Z M 0.984375 0 "/></g></g></g><g fill="#00bf63" fill-opacity="1"><g transform="translate(47.62131, 369.080236)"><g><path d="M 0.984375 0 L 0.984375 -3.0625 L 5.515625 -3.0625 L 5.515625 -14.734375 L 5.21875 -14.8125 C 4.582031 -14.5 3.953125 -14.253906 3.328125 -14.078125 C 2.703125 -13.898438 1.992188 -13.757812 1.203125 -13.65625 L 1.203125 -16.828125 C 3.285156 -17.265625 4.96875 -17.90625 6.25 -18.75 L 9.1875 -18.75 L 9.1875 -3.0625 L 13.21875 -3.0625 L 13.21875 0 Z M 0.984375 0 "/></g></g></g><g fill="#00bf63" fill-opacity="1"><g transform="translate(81.272072, 363.879777)"><g><path d="M 0.984375 0 L 0.984375 -3.0625 L 5.515625 -3.0625 L 5.515625 -14.734375 L 5.21875 -14.8125 C 4.582031 -14.5 3.953125 -14.253906 3.328125 -14.078125 C 2.703125 -13.898438 1.992188 -13.757812 1.203125 -13.65625 L 1.203125 -16.828125 C 3.285156 -17.265625 4.96875 -17.90625 6.25 -18.75 L 9.1875 -18.75 L 9.1875 -3.0625 L 13.21875 -3.0625 L 13.21875 0 Z M 0.984375 0 "/></g></g></g><g fill="#00bf63" fill-opacity="1"><g transform="translate(14.0755, 370.164748)"><g><path d="M 0.984375 0 L 0.984375 -3.0625 L 5.515625 -3.0625 L 5.515625 -14.734375 L 5.21875 -14.8125 C 4.582031 -14.5 3.953125 -14.253906 3.328125 -14.078125 C 2.703125 -13.898438 1.992188 -13.757812 1.203125 -13.65625 L 1.203125 -16.828125 C 3.285156 -17.265625 4.96875 -17.90625 6.25 -18.75 L 9.1875 -18.75 L 9.1875 -3.0625 L 13.21875 -3.0625 L 13.21875 0 Z M 0.984375 0 "/></g></g></g></svg>