<svg xmlns="http://www.w3.org/2000/svg" xmlns:xlink="http://www.w3.org/1999/xlink" width="500" zoomAndPan="magnify" viewBox="0 0 375 374.999991" height="500" preserveAspectRatio="xMidYMid meet" version="1.0"><defs><g/></defs><g fill="#00bf63" fill-opacity="1"><g transform="translate(40.78003, 314.212664)"><g><path d="M 33.859375 1.5625 C 25.773438 1.5625 19.460938 -0.546875 14.921875 -4.765625 C 10.378906 -8.984375 8.109375 -15.007812 8.109375 -22.84375 C 8.109375 -27.707031 9.113281 -31.8125 11.125 -35.15625 C 13.132812 -38.507812 16.25 -41.238281 20.46875 -43.34375 C 24.6875 -45.457031 30.191406 -47.085938 36.984375 -48.234375 C 42.941406 -49.222656 47.46875 -50.335938 50.5625 -51.578125 C 53.664062 -52.816406 55.75 -54.203125 56.8125 -55.734375 C 57.882812 -57.273438 58.421875 -59.210938 58.421875 -61.546875 C 58.421875 -65.265625 57.140625 -68.113281 54.578125 -70.09375 C 52.023438 -72.082031 47.921875 -73.078125 42.265625 -73.078125 C 36.960938 -73.078125 32.410156 -72.046875 28.609375 -69.984375 C 24.816406 -67.929688 21.332031 -64.875 18.15625 -60.8125 L 16.671875 -60.8125 L 10.71875 -69.21875 C 14.1875 -73.632812 18.597656 -77.144531 23.953125 -79.75 C 29.316406 -82.351562 35.421875 -83.65625 42.265625 -83.65625 C 51.941406 -83.65625 59.070312 -81.53125 63.65625 -77.28125 C 68.25 -73.039062 70.546875 -67.175781 70.546875 -59.6875 L 70.546875 -16.15625 C 70.546875 -11.582031 72.484375 -9.296875 76.359375 -9.296875 C 77.648438 -9.296875 78.890625 -9.519531 80.078125 -9.96875 L 81.125 -9.671875 L 82.53125 -1.265625 C 81.644531 -0.671875 80.46875 -0.210938 79 0.109375 C 77.539062 0.429688 76.039062 0.59375 74.5 0.59375 C 69.976562 0.59375 66.566406 -0.394531 64.265625 -2.375 C 61.960938 -4.363281 60.488281 -7.289062 59.84375 -11.15625 L 58.28125 -11.3125 C 55.945312 -7 52.796875 -3.773438 48.828125 -1.640625 C 44.859375 0.492188 39.867188 1.5625 33.859375 1.5625 Z M 36.546875 -8.109375 C 41.109375 -8.109375 45.0625 -9.160156 48.40625 -11.265625 C 51.757812 -13.378906 54.328125 -16.347656 56.109375 -20.171875 C 57.898438 -23.992188 58.796875 -28.410156 58.796875 -33.421875 L 58.796875 -43.84375 L 57.375 -44.140625 C 55.539062 -42.847656 53.304688 -41.765625 50.671875 -40.890625 C 48.046875 -40.023438 44.378906 -39.242188 39.671875 -38.546875 C 34.910156 -37.898438 31.125 -36.90625 28.3125 -35.5625 C 25.507812 -34.226562 23.515625 -32.53125 22.328125 -30.46875 C 21.140625 -28.414062 20.546875 -25.875 20.546875 -22.84375 C 20.546875 -18.03125 21.957031 -14.367188 24.78125 -11.859375 C 27.613281 -9.359375 31.535156 -8.109375 36.546875 -8.109375 Z M 36.546875 -8.109375 "/></g></g></g><g fill="#00bf63" fill-opacity="1"><g transform="translate(122.036731, 314.212664)"><g><path d="M 37.4375 1.5625 C 32.28125 1.5625 27.503906 0.878906 23.109375 -0.484375 C 18.710938 -1.847656 15 -3.71875 11.96875 -6.09375 C 8.945312 -8.476562 6.816406 -11.160156 5.578125 -14.140625 L 12.734375 -21.578125 L 14.296875 -21.578125 C 16.972656 -17.515625 20.195312 -14.453125 23.96875 -12.390625 C 27.738281 -10.328125 32.226562 -9.296875 37.4375 -9.296875 C 43.488281 -9.296875 48.085938 -10.472656 51.234375 -12.828125 C 54.390625 -15.191406 55.96875 -18.484375 55.96875 -22.703125 C 55.96875 -25.921875 55.007812 -28.582031 53.09375 -30.6875 C 51.1875 -32.800781 48.101562 -34.378906 43.84375 -35.421875 L 30 -38.84375 C 22.601562 -40.632812 17.203125 -43.460938 13.796875 -47.328125 C 10.398438 -51.203125 8.703125 -55.992188 8.703125 -61.703125 C 8.703125 -66.160156 9.84375 -70.039062 12.125 -73.34375 C 14.414062 -76.644531 17.707031 -79.1875 22 -80.96875 C 26.289062 -82.757812 31.382812 -83.65625 37.28125 -83.65625 C 44.820312 -83.65625 50.765625 -82.597656 55.109375 -80.484375 C 59.453125 -78.378906 62.835938 -75.441406 65.265625 -71.671875 L 58.421875 -64.96875 L 56.9375 -64.96875 C 54.300781 -68 51.429688 -70.179688 48.328125 -71.515625 C 45.234375 -72.859375 41.550781 -73.53125 37.28125 -73.53125 C 31.875 -73.53125 27.734375 -72.5625 24.859375 -70.625 C 21.984375 -68.6875 20.546875 -65.882812 20.546875 -62.21875 C 20.546875 -58.894531 21.5625 -56.210938 23.59375 -54.171875 C 25.625 -52.140625 29.171875 -50.503906 34.234375 -49.265625 L 47.859375 -46 C 55.003906 -44.3125 60.160156 -41.503906 63.328125 -37.578125 C 66.503906 -33.660156 68.09375 -28.75 68.09375 -22.84375 C 68.09375 -18.03125 66.953125 -13.785156 64.671875 -10.109375 C 62.390625 -6.441406 58.941406 -3.578125 54.328125 -1.515625 C 49.710938 0.535156 44.082031 1.5625 37.4375 1.5625 Z M 37.4375 1.5625 "/></g></g></g><g fill="#00bf63" fill-opacity="1"><g transform="translate(194.288435, 314.212664)"><g><path d="M 14.296875 0 L 14.296875 -82.09375 L 25.828125 -82.09375 L 25.828125 -69.953125 L 27.390625 -69.65625 C 30.171875 -74.269531 33.53125 -77.753906 37.46875 -80.109375 C 41.414062 -82.472656 46.144531 -83.65625 51.65625 -83.65625 C 58 -83.65625 62.90625 -82.453125 66.375 -80.046875 C 69.851562 -77.640625 72.5625 -73.753906 74.5 -68.390625 L 76.0625 -68.390625 C 78.882812 -73.398438 82.367188 -77.195312 86.515625 -79.78125 C 90.660156 -82.363281 95.757812 -83.65625 101.8125 -83.65625 C 110.25 -83.65625 116.535156 -81.367188 120.671875 -76.796875 C 124.816406 -72.234375 126.890625 -65.289062 126.890625 -55.96875 L 126.890625 0 L 114.765625 0 L 114.765625 -55.671875 C 114.765625 -61.617188 113.507812 -66.003906 111 -68.828125 C 108.5 -71.660156 104.46875 -73.078125 98.90625 -73.078125 C 92.363281 -73.078125 87.019531 -70.695312 82.875 -65.9375 C 78.726562 -61.175781 76.65625 -53.335938 76.65625 -42.421875 L 76.65625 0 L 64.53125 0 L 64.53125 -55.671875 C 64.53125 -61.617188 63.273438 -66.003906 60.765625 -68.828125 C 58.265625 -71.660156 54.234375 -73.078125 48.671875 -73.078125 C 42.117188 -73.078125 36.769531 -70.769531 32.625 -66.15625 C 28.488281 -61.539062 26.421875 -54.050781 26.421875 -43.6875 L 26.421875 0 Z M 14.296875 0 "/></g></g></g><g fill="#00bf63" fill-opacity="1"><g transform="translate(18.152327, 198.861072)"><g><path d="M 29.71875 0 L 1.8125 0 L 31.90625 -54.65625 L 3.4375 -105.390625 L 31.71875 -105.390625 L 49.96875 -70.703125 L 52.171875 -70.703125 L 70.515625 -105.390625 L 97.9375 -105.390625 L 70.3125 -54.65625 L 99.5625 0 L 71.375 0 L 51.5 -38.5 L 49.296875 -38.5 Z M 29.71875 0 "/></g></g></g><g fill="#00bf63" fill-opacity="1"><g transform="translate(114.829848, 198.861072)"><g><path d="M 59.90625 2 C 48.820312 2 39.441406 0.28125 31.765625 -3.15625 C 24.085938 -6.59375 18.304688 -11.492188 14.421875 -17.859375 C 10.535156 -24.234375 8.59375 -31.785156 8.59375 -40.515625 C 8.59375 -48.597656 10.597656 -55.601562 14.609375 -61.53125 C 18.628906 -67.457031 24.492188 -72.109375 32.203125 -75.484375 L 32.203125 -77.484375 C 26.722656 -80.859375 22.53125 -84.867188 19.625 -89.515625 C 16.726562 -94.171875 15.28125 -99.617188 15.28125 -105.859375 C 15.28125 -112.929688 17.015625 -119.171875 20.484375 -124.578125 C 23.960938 -129.992188 29.0625 -134.195312 35.78125 -137.1875 C 42.5 -140.1875 50.539062 -141.6875 59.90625 -141.6875 C 69.269531 -141.6875 77.296875 -140.1875 83.984375 -137.1875 C 90.671875 -134.195312 95.765625 -129.992188 99.265625 -124.578125 C 102.773438 -119.171875 104.53125 -112.929688 104.53125 -105.859375 C 104.53125 -99.617188 103.0625 -94.1875 100.125 -89.5625 C 97.195312 -84.945312 92.960938 -80.921875 87.421875 -77.484375 L 87.421875 -75.484375 C 95.578125 -72.234375 101.5625 -67.613281 105.375 -61.625 C 109.195312 -55.632812 111.109375 -48.597656 111.109375 -40.515625 C 111.109375 -31.785156 109.164062 -24.234375 105.28125 -17.859375 C 101.394531 -11.492188 95.628906 -6.59375 87.984375 -3.15625 C 80.347656 0.28125 70.988281 2 59.90625 2 Z M 59.90625 -85.3125 C 65.445312 -85.3125 69.859375 -86.835938 73.140625 -89.890625 C 76.421875 -92.953125 78.0625 -97.191406 78.0625 -102.609375 C 78.0625 -108.085938 76.421875 -112.382812 73.140625 -115.5 C 69.859375 -118.625 65.445312 -120.1875 59.90625 -120.1875 C 54.238281 -120.1875 49.78125 -118.640625 46.53125 -115.546875 C 43.28125 -112.460938 41.65625 -108.148438 41.65625 -102.609375 C 41.65625 -97.128906 43.28125 -92.875 46.53125 -89.84375 C 49.78125 -86.820312 54.238281 -85.3125 59.90625 -85.3125 Z M 59.90625 -21.5 C 67.351562 -21.5 73.113281 -23.359375 77.1875 -27.078125 C 81.269531 -30.804688 83.3125 -35.984375 83.3125 -42.609375 C 83.3125 -49.234375 81.269531 -54.410156 77.1875 -58.140625 C 73.113281 -61.867188 67.351562 -63.734375 59.90625 -63.734375 C 52.382812 -63.734375 46.585938 -61.867188 42.515625 -58.140625 C 38.441406 -54.410156 36.40625 -49.234375 36.40625 -42.609375 C 36.40625 -35.984375 38.441406 -30.804688 42.515625 -27.078125 C 46.585938 -23.359375 52.382812 -21.5 59.90625 -21.5 Z M 59.90625 -21.5 "/></g></g></g><g fill="#00bf63" fill-opacity="1"><g transform="translate(229.947655, 198.861072)"><g><path d="M 66.78125 2 C 56.269531 2 46.890625 -0.414062 38.640625 -5.25 C 30.398438 -10.09375 23.859375 -17.785156 19.015625 -28.328125 C 14.171875 -38.867188 11.75 -52.257812 11.75 -68.5 C 11.75 -85.0625 14.296875 -98.800781 19.390625 -109.71875 C 24.484375 -120.644531 31.441406 -128.703125 40.265625 -133.890625 C 49.085938 -139.085938 59.203125 -141.6875 70.609375 -141.6875 C 80.097656 -141.6875 88.265625 -140.316406 95.109375 -137.578125 C 101.960938 -134.835938 107.296875 -130.796875 111.109375 -125.453125 L 97.546875 -108.0625 L 95.15625 -108.0625 C 89.363281 -115 81.179688 -118.46875 70.609375 -118.46875 C 50.734375 -118.46875 40.570312 -103.914062 40.125 -74.8125 L 42.140625 -74.140625 C 45.378906 -80.128906 49.660156 -84.695312 54.984375 -87.84375 C 60.304688 -91 67.007812 -92.578125 75.09375 -92.578125 C 83.757812 -92.578125 91.242188 -90.742188 97.546875 -87.078125 C 103.859375 -83.421875 108.703125 -78.179688 112.078125 -71.359375 C 115.453125 -64.546875 117.140625 -56.460938 117.140625 -47.109375 C 117.140625 -36.910156 115.113281 -28.117188 111.0625 -20.734375 C 107.019531 -13.347656 101.207031 -7.710938 93.625 -3.828125 C 86.050781 0.0546875 77.101562 2 66.78125 2 Z M 66.21875 -21.59375 C 73.40625 -21.59375 79.035156 -23.707031 83.109375 -27.9375 C 87.191406 -32.175781 89.234375 -38.117188 89.234375 -45.765625 C 89.234375 -53.410156 87.191406 -59.347656 83.109375 -63.578125 C 79.035156 -67.816406 73.40625 -69.9375 66.21875 -69.9375 C 61.5 -69.9375 57.367188 -68.945312 53.828125 -66.96875 C 50.296875 -65 47.570312 -62.195312 45.65625 -58.5625 C 43.75 -54.9375 42.796875 -50.671875 42.796875 -45.765625 C 42.796875 -38.316406 44.878906 -32.425781 49.046875 -28.09375 C 53.222656 -23.757812 58.945312 -21.59375 66.21875 -21.59375 Z M 66.21875 -21.59375 "/></g></g></g></svg>