<svg xmlns="http://www.w3.org/2000/svg" xmlns:xlink="http://www.w3.org/1999/xlink" width="500" zoomAndPan="magnify" viewBox="0 0 375 374.999991" height="500" preserveAspectRatio="xMidYMid meet" version="1.0"><defs><g/></defs><g fill="#0091bd" fill-opacity="1"><g transform="translate(41.561021, 305.473409)"><g><path d="M 33.6875 1.546875 C 25.632812 1.546875 19.347656 -0.546875 14.828125 -4.734375 C 10.316406 -8.929688 8.0625 -14.929688 8.0625 -22.734375 C 8.0625 -27.566406 9.0625 -31.644531 11.0625 -34.96875 C 13.0625 -38.300781 16.160156 -41.015625 20.359375 -43.109375 C 24.554688 -45.210938 30.035156 -46.832031 36.796875 -47.96875 C 42.710938 -48.957031 47.210938 -50.066406 50.296875 -51.296875 C 53.378906 -52.535156 55.453125 -53.914062 56.515625 -55.4375 C 57.578125 -56.96875 58.109375 -58.894531 58.109375 -61.21875 C 58.109375 -64.914062 56.835938 -67.753906 54.296875 -69.734375 C 51.753906 -71.710938 47.671875 -72.703125 42.046875 -72.703125 C 36.765625 -72.703125 32.234375 -71.675781 28.453125 -69.625 C 24.679688 -67.570312 21.21875 -64.523438 18.0625 -60.484375 L 16.578125 -60.484375 L 10.65625 -68.84375 C 14.113281 -73.238281 18.503906 -76.726562 23.828125 -79.3125 C 29.160156 -81.90625 35.234375 -83.203125 42.046875 -83.203125 C 51.671875 -83.203125 58.765625 -81.09375 63.328125 -76.875 C 67.890625 -72.65625 70.171875 -66.820312 70.171875 -59.375 L 70.171875 -16.0625 C 70.171875 -11.519531 72.097656 -9.25 75.953125 -9.25 C 77.234375 -9.25 78.46875 -9.472656 79.65625 -9.921875 L 80.6875 -9.625 L 82.09375 -1.265625 C 81.207031 -0.671875 80.035156 -0.210938 78.578125 0.109375 C 77.117188 0.429688 75.628906 0.59375 74.109375 0.59375 C 69.609375 0.59375 66.210938 -0.390625 63.921875 -2.359375 C 61.628906 -4.335938 60.160156 -7.253906 59.515625 -11.109375 L 57.96875 -11.25 C 55.644531 -6.957031 52.507812 -3.75 48.5625 -1.625 C 44.613281 0.488281 39.65625 1.546875 33.6875 1.546875 Z M 36.34375 -8.0625 C 40.882812 -8.0625 44.820312 -9.109375 48.15625 -11.203125 C 51.488281 -13.304688 54.039062 -16.257812 55.8125 -20.0625 C 57.59375 -23.863281 58.484375 -28.253906 58.484375 -33.234375 L 58.484375 -43.609375 L 57.078125 -43.90625 C 55.253906 -42.613281 53.03125 -41.535156 50.40625 -40.671875 C 47.789062 -39.816406 44.140625 -39.039062 39.453125 -38.34375 C 34.710938 -37.707031 30.945312 -36.722656 28.15625 -35.390625 C 25.375 -34.054688 23.390625 -32.363281 22.203125 -30.3125 C 21.023438 -28.269531 20.4375 -25.742188 20.4375 -22.734375 C 20.4375 -17.941406 21.84375 -14.296875 24.65625 -11.796875 C 27.46875 -9.304688 31.363281 -8.0625 36.34375 -8.0625 Z M 36.34375 -8.0625 "/></g></g></g><g fill="#0091bd" fill-opacity="1"><g transform="translate(122.385184, 305.473409)"><g><path d="M 37.234375 1.546875 C 32.097656 1.546875 27.347656 0.867188 22.984375 -0.484375 C 18.617188 -1.835938 14.929688 -3.695312 11.921875 -6.0625 C 8.910156 -8.4375 6.785156 -11.101562 5.546875 -14.0625 L 12.65625 -21.46875 L 14.21875 -21.46875 C 16.875 -17.414062 20.078125 -14.363281 23.828125 -12.3125 C 27.585938 -10.269531 32.054688 -9.25 37.234375 -9.25 C 43.253906 -9.25 47.832031 -10.421875 50.96875 -12.765625 C 54.101562 -15.109375 55.671875 -18.378906 55.671875 -22.578125 C 55.671875 -25.785156 54.71875 -28.4375 52.8125 -30.53125 C 50.914062 -32.632812 47.847656 -34.203125 43.609375 -35.234375 L 29.828125 -38.640625 C 22.472656 -40.421875 17.101562 -43.234375 13.71875 -47.078125 C 10.34375 -50.929688 8.65625 -55.695312 8.65625 -61.375 C 8.65625 -65.8125 9.789062 -69.671875 12.0625 -72.953125 C 14.332031 -76.234375 17.601562 -78.757812 21.875 -80.53125 C 26.144531 -82.3125 31.21875 -83.203125 37.09375 -83.203125 C 44.59375 -83.203125 50.5 -82.15625 54.8125 -80.0625 C 59.132812 -77.96875 62.503906 -75.039062 64.921875 -71.28125 L 58.109375 -64.625 L 56.625 -64.625 C 54.007812 -67.632812 51.160156 -69.804688 48.078125 -71.140625 C 44.992188 -72.472656 41.332031 -73.140625 37.09375 -73.140625 C 31.707031 -73.140625 27.582031 -72.175781 24.71875 -70.25 C 21.863281 -68.320312 20.4375 -65.535156 20.4375 -61.890625 C 20.4375 -58.578125 21.445312 -55.910156 23.46875 -53.890625 C 25.488281 -51.867188 29.015625 -50.238281 34.046875 -49 L 47.59375 -45.75 C 54.707031 -44.070312 59.84375 -41.28125 63 -37.375 C 66.15625 -33.476562 67.734375 -28.597656 67.734375 -22.734375 C 67.734375 -17.941406 66.597656 -13.71875 64.328125 -10.0625 C 62.054688 -6.414062 58.625 -3.566406 54.03125 -1.515625 C 49.445312 0.523438 43.847656 1.546875 37.234375 1.546875 Z M 37.234375 1.546875 "/></g></g></g><g fill="#0091bd" fill-opacity="1"><g transform="translate(194.252284, 305.473409)"><g><path d="M 14.21875 0 L 14.21875 -81.65625 L 25.6875 -81.65625 L 25.6875 -69.59375 L 27.25 -69.296875 C 30.007812 -73.878906 33.347656 -77.34375 37.265625 -79.6875 C 41.191406 -82.03125 45.894531 -83.203125 51.375 -83.203125 C 57.6875 -83.203125 62.570312 -82.003906 66.03125 -79.609375 C 69.488281 -77.222656 72.179688 -73.363281 74.109375 -68.03125 L 75.65625 -68.03125 C 78.46875 -73.019531 81.929688 -76.796875 86.046875 -79.359375 C 90.171875 -81.921875 95.242188 -83.203125 101.265625 -83.203125 C 109.660156 -83.203125 115.914062 -80.929688 120.03125 -76.390625 C 124.15625 -71.859375 126.21875 -64.953125 126.21875 -55.671875 L 126.21875 0 L 114.15625 0 L 114.15625 -55.375 C 114.15625 -61.289062 112.90625 -65.65625 110.40625 -68.46875 C 107.914062 -71.289062 103.910156 -72.703125 98.390625 -72.703125 C 91.867188 -72.703125 86.546875 -70.332031 82.421875 -65.59375 C 78.304688 -60.851562 76.25 -53.054688 76.25 -42.203125 L 76.25 0 L 64.1875 0 L 64.1875 -55.375 C 64.1875 -61.289062 62.9375 -65.65625 60.4375 -68.46875 C 57.945312 -71.289062 53.941406 -72.703125 48.421875 -72.703125 C 41.898438 -72.703125 36.578125 -70.40625 32.453125 -65.8125 C 28.335938 -61.21875 26.28125 -53.765625 26.28125 -43.453125 L 26.28125 0 Z M 14.21875 0 "/></g></g></g><g fill="#0091bd" fill-opacity="1"><g transform="translate(5.13877, 190.735802)"><g><path d="M 40.859375 2 C 34.148438 2 28.320312 0.765625 23.375 -1.703125 C 18.4375 -4.179688 14.632812 -7.8125 11.96875 -12.59375 C 9.3125 -17.375 7.984375 -23.125 7.984375 -29.84375 C 7.984375 -36.050781 9.3125 -41.257812 11.96875 -45.46875 C 14.632812 -49.6875 18.753906 -53.140625 24.328125 -55.828125 C 29.898438 -58.523438 37.1875 -60.601562 46.1875 -62.0625 C 52.457031 -63.070312 57.222656 -64.175781 60.484375 -65.375 C 63.753906 -66.582031 65.957031 -67.945312 67.09375 -69.46875 C 68.238281 -70.988281 68.8125 -72.921875 68.8125 -75.265625 C 68.8125 -78.628906 67.640625 -81.195312 65.296875 -82.96875 C 62.953125 -84.738281 59.054688 -85.625 53.609375 -85.625 C 47.773438 -85.625 42.226562 -84.328125 36.96875 -81.734375 C 31.707031 -79.140625 27.144531 -75.71875 23.28125 -71.46875 L 21.390625 -71.46875 L 10.359375 -88.09375 C 15.679688 -93.988281 22.175781 -98.582031 29.84375 -101.875 C 37.507812 -105.175781 45.875 -106.828125 54.9375 -106.828125 C 68.8125 -106.828125 78.851562 -103.878906 85.0625 -97.984375 C 91.269531 -92.085938 94.375 -83.722656 94.375 -72.890625 L 94.375 -27.375 C 94.375 -22.6875 96.429688 -20.34375 100.546875 -20.34375 C 102.128906 -20.34375 103.679688 -20.625 105.203125 -21.1875 L 106.546875 -20.8125 L 108.4375 -2.46875 C 106.976562 -1.519531 104.945312 -0.742188 102.34375 -0.140625 C 99.75 0.460938 96.898438 0.765625 93.796875 0.765625 C 87.523438 0.765625 82.628906 -0.4375 79.109375 -2.84375 C 75.597656 -5.257812 73.082031 -9.03125 71.5625 -14.15625 L 69.5625 -14.34375 C 64.4375 -3.445312 54.867188 2 40.859375 2 Z M 49.234375 -17.671875 C 55.316406 -17.671875 60.175781 -19.710938 63.8125 -23.796875 C 67.457031 -27.890625 69.28125 -33.578125 69.28125 -40.859375 L 69.28125 -51.515625 L 67.484375 -51.890625 C 65.898438 -50.617188 63.820312 -49.554688 61.25 -48.703125 C 58.6875 -47.847656 55 -47.007812 50.1875 -46.1875 C 44.476562 -45.238281 40.375 -43.609375 37.875 -41.296875 C 35.375 -38.984375 34.125 -35.703125 34.125 -31.453125 C 34.125 -26.953125 35.453125 -23.53125 38.109375 -21.1875 C 40.773438 -18.84375 44.484375 -17.671875 49.234375 -17.671875 Z M 49.234375 -17.671875 "/></g></g></g><g fill="#0091bd" fill-opacity="1"><g transform="translate(110.995432, 190.735802)"><g><path d="M 15.109375 0 L 15.109375 -104.828125 L 40.671875 -104.828125 L 40.671875 -89.234375 L 42.671875 -88.859375 C 45.203125 -94.691406 48.523438 -98.96875 52.640625 -101.6875 C 56.765625 -104.414062 61.773438 -105.78125 67.671875 -105.78125 C 73.628906 -105.78125 78.160156 -104.765625 81.265625 -102.734375 L 76.796875 -80.015625 L 74.796875 -79.640625 C 73.085938 -80.335938 71.441406 -80.84375 69.859375 -81.15625 C 68.273438 -81.476562 66.34375 -81.640625 64.0625 -81.640625 C 56.707031 -81.640625 51.097656 -79.054688 47.234375 -73.890625 C 43.367188 -68.722656 41.4375 -60.441406 41.4375 -49.046875 L 41.4375 0 Z M 15.109375 0 "/></g></g></g><g fill="#0091bd" fill-opacity="1"><g transform="translate(188.531091, 190.735802)"><g><path d="M 15.109375 0 L 15.109375 -104.828125 L 40.390625 -104.828125 L 40.390625 -90.765625 L 42.390625 -90.375 C 45.804688 -96.019531 49.8125 -100.171875 54.40625 -102.828125 C 59 -105.492188 64.878906 -106.828125 72.046875 -106.828125 C 79.960938 -106.828125 86.328125 -105.257812 91.140625 -102.125 C 95.953125 -98.988281 99.46875 -94.410156 101.6875 -88.390625 L 103.6875 -88.390625 C 106.914062 -94.660156 111.082031 -99.300781 116.1875 -102.3125 C 121.289062 -105.320312 127.640625 -106.828125 135.234375 -106.828125 C 156.972656 -106.828125 167.84375 -94.722656 167.84375 -70.515625 L 167.84375 0 L 141.515625 0 L 141.515625 -67.1875 C 141.515625 -73.332031 140.3125 -77.765625 137.90625 -80.484375 C 135.5 -83.210938 131.632812 -84.578125 126.3125 -84.578125 C 111.863281 -84.578125 104.640625 -74.914062 104.640625 -55.59375 L 104.640625 0 L 78.3125 0 L 78.3125 -67.1875 C 78.3125 -73.332031 77.09375 -77.765625 74.65625 -80.484375 C 72.21875 -83.210938 68.335938 -84.578125 63.015625 -84.578125 C 56.234375 -84.578125 50.941406 -82.3125 47.140625 -77.78125 C 43.335938 -73.257812 41.4375 -66.054688 41.4375 -56.171875 L 41.4375 0 Z M 15.109375 0 "/></g></g></g></svg>